<svg xmlns="http://www.w3.org/2000/svg" width="24" height="25"><path d="M.512 11.949c0 2.032.53 4.016 1.54 5.765L.416 23.69l6.115-1.604a11.5 11.5 0 0 0 5.513 1.404h.005c6.357 0 11.532-5.173 11.535-11.532a11.46 11.46 0 0 0-3.376-8.159 11.46 11.46 0 0 0-8.16-3.382C5.69.417.515 5.59.512 11.949"/><path d="M.1 11.945c0 2.106.55 4.16 1.595 5.973L0 24.108l6.335-1.661a11.94 11.94 0 0 0 5.71 1.454h.005c6.586 0 11.947-5.36 11.95-11.946a11.87 11.87 0 0 0-3.497-8.452A11.88 11.88 0 0 0 12.05 0C5.463 0 .103 5.359.1 11.945m3.773 5.66-.237-.375a9.9 9.9 0 0 1-1.518-5.284c.002-5.475 4.457-9.928 9.936-9.928a9.87 9.87 0 0 1 7.022 2.911 9.87 9.87 0 0 1 2.906 7.025c-.002 5.475-4.457 9.93-9.932 9.93h-.004a9.9 9.9 0 0 1-5.055-1.385l-.363-.215-3.759.985z"/><path d="M9.063 6.95c-.223-.497-.459-.507-.671-.515-.175-.008-.374-.007-.573-.007s-.522.075-.796.373c-.274.3-1.045 1.021-1.045 2.49s1.07 2.89 1.22 3.089c.148.198 2.065 3.31 5.1 4.506 2.522.995 3.035.797 3.583.747.547-.05 1.766-.722 2.015-1.42.249-.696.249-1.294.174-1.419-.074-.124-.274-.199-.572-.348-.299-.15-1.767-.872-2.04-.971-.274-.1-.473-.15-.672.15-.2.298-.771.97-.945 1.17-.175.199-.349.224-.647.075-.3-.15-1.26-.465-2.402-1.482-.887-.792-1.486-1.77-1.66-2.068-.175-.299-.02-.46.13-.61.135-.133.3-.348.448-.522.15-.175.2-.299.299-.498.1-.2.05-.374-.025-.523s-.655-1.626-.92-2.216"/></svg>