<svg xmlns="http://www.w3.org/2000/svg" width="1728" height="895"><path fill-opacity=".4" d="M1727.46.062h-17.41v18.762h17.41zm0 26.697h-17.41v18.763h17.41zm0 26.691h-17.41v18.768h17.41zm-.11 26.814h-17.22V98.79h17.22zm0 26.634h-17.22v18.534h17.22zm.06 26.641h-17.31v18.645h17.31zm-.06 26.753h-17.22v18.527h17.22zm.06 26.635h-17.31v18.651h17.31zm0 26.703h-17.31v18.645h17.31zm.05 26.635h-17.41v18.707h17.41zm0 26.64h-17.41v18.763h17.41zm.11 53.276h-17.63v18.936h17.63zm-.11 26.808h-17.41v18.707h17.41zm.14 26.524h-17.71v18.992h17.71zm.29 79.699h-18.27v19.686h18.27zm0 26.696h-18.27v19.686h18.27zm.06 26.635h-18.38v19.773h18.38zm-.06 26.728h-18.27v19.687h18.27zm.11 26.579h-18.49v19.89H1728zm-.24 26.951h-18v19.37h18zm-.3 26.994h-17.41v18.732h17.41zm.11 26.579h-17.63v18.961h17.63zm.14 26.523h-17.9v19.284h17.9zm-.11 26.808h-17.71v19.054h17.71zm-.97 27.707h-15.74v16.971h15.74zm-7 34.229h-1.75v1.878h1.75zm.24 26.429h-2.23v2.405h2.23zm.73 25.891h-3.69v3.998h3.69zm.97 25.649h-5.63v6.081h5.63zm-.38 27.107h-4.87v5.244h4.87zm-.16 26.839h-4.57v4.921h4.57zM1702.65.062h-17.41v18.762h17.41zm0 26.697h-17.41v18.763h17.41zm0 26.691h-17.41v18.768h17.41zm-.08 26.814h-17.22V98.79h17.22zm0 26.634h-17.22v18.534h17.22zm.06 26.641h-17.33v18.645h17.33zm0 53.388h-17.33v18.651h17.33zm0 26.703h-17.33v18.645h17.33zm.02 26.635h-17.41v18.707h17.41zm0 26.64h-17.41v18.763h17.41zm0 26.697h-17.41v18.762h17.41zm.11 26.579h-17.6v18.936h17.6zm-.11 26.808h-17.41v18.707h17.41zm.17 26.524h-17.71v18.992h17.71zm.1 26.522H1685v19.284h17.92zm.08 26.592h-18.08v19.488H1703zm.11 26.585h-18.3v19.686h18.3zm0 26.696h-18.3v19.686h18.3zm.05 26.635h-18.4v19.773h18.4zm-.05 26.728h-18.3v19.687h18.3zm-.16 53.53h-18v19.37h18zm-.03 80.096H1685v19.284h17.92zm-.1 26.808h-17.71v19.054h17.71zm-.98 27.707h-15.76v16.971h15.76zm-7.02 34.229h-1.75v1.878h1.75zm.25 26.429h-2.23v2.405h2.23zm.75 25.891h-3.71v3.998h3.71zm.97 25.649h-5.65v6.081h5.65zm-.4 27.107h-4.87v5.244h4.87zm-.14 26.839h-4.57v4.921h4.57zM1677.82.118h-17.33v18.645h17.33zM1676.5 54.9h-14.69v15.806h14.69zm1.37 25.246h-17.41v18.706h17.41zm-.1 26.752h-17.23v18.534h17.23zm.1 26.585h-17.41v18.763h17.41zm0 26.698h-17.41v18.762h17.41zm0 26.69h-17.41v18.769h17.41zm-.05 26.759h-17.33v18.645h17.33zm.05 26.635h-17.41v18.707h17.41zm.08 79.916h-17.6v18.936h17.6zm0 53.387h-17.6v18.937h17.6zm.16 26.467h-17.89v19.284h17.89zm.25 79.812h-18.38v19.81h18.38zm-.05 53.424h-18.3v19.687h18.3zm.05 26.634h-18.38v19.78h18.38zm-.19 26.896h-18v19.37h18zm0 26.672h-18v19.37h18zm-.35 27.068h-17.33v18.614h17.33zm.13 26.529h-17.6V686h17.6zm0 26.666h-17.6v18.961h17.6zm-2.79 29.735h-11.98v12.886h11.98zm-4.79 31.822h-2.42v2.603h2.42zm.54 26.083h-3.51v3.793h3.51zm2.15 24.385h-7.77v8.392h7.77zm-2.15 55.675h-3.51v3.768h3.51zm-.33 27.043h-2.82v3.044h2.82zM1652.99.174h-17.22v18.533h17.22zm-1.81 55.303h-13.61v14.647h13.61zm1.65 24.905h-16.93v18.236h16.93zm.18 53.157h-17.3v18.645h17.3zm.22 26.523h-17.71v19.048h17.71zm-.16 26.809h-17.41v18.769h17.41zm-.08 26.815h-17.22v18.527h17.22zm.08 26.579h-17.41v18.707h17.41zm-.06 26.696h-17.3v18.645h17.3zm-.02 26.753h-17.22v18.533h17.22zm.02 26.64h-17.3v18.645h17.3zm.22 53.159h-17.71v18.992h17.71zm.08 26.522h-17.9v19.284h17.9zm.1 26.592h-18.1v19.488h18.1zm.15 53.22h-18.38v19.81h18.38zm.04 26.64h-18.48v19.891h18.48zm-.08 26.784h-18.29v19.687h18.29zm-.11 26.784h-18.1v19.488h18.1zm-.1 26.807h-17.9v19.259h17.9zm.25 26.407h-18.38v19.804h18.38zm-.49 27.217h-17.41v18.732h17.41zm.1 26.584h-17.62V686h17.62zm-.1 26.784h-17.41v18.732h17.41zm-.43 27.156h-16.55v17.808h16.55zm-7.05 87.645h-2.45v2.604h2.45zm.96 52.322h-4.38v4.717h4.38zm-.34 27.037h-3.69v3.998h3.69zM1628.23.118h-17.32v18.645h17.32zm-.16 53.567h-17v18.297h17zm0 26.635h-17v18.353h17zm.11 26.578h-17.22v18.534h17.22zm.05 26.641h-17.32v18.645h17.32zm.06 26.642h-17.44v18.762h17.44zm-.25 53.622h-16.92v18.236h16.92zm0 26.69h-16.92v18.242h16.92zm-1.08 27.856h-14.79v15.923h14.79zm1.11 25.482h-17v18.304h17zm.22 26.461h-17.44v18.763h17.44zm.13 26.523h-17.71v19.054h17.71zm0 26.698h-17.71v18.992h17.71zm.16 26.522h-18v19.339h18zm.13 79.873h-18.29v19.686h18.29zm0 26.691h-18.29v19.661h18.29zm0 26.672h-18.29v19.687h18.29zm.06 26.634h-18.41v19.78h18.41zm-.41 27.101h-17.59v18.936h17.59zm.35 26.324h-18.29v19.686h18.29zm-.29 26.982h-17.71v19.048h17.71zm0 53.393h-17.71v19.054h17.71zm-.24 26.926h-17.22v18.533h17.22zm-6.95 34.166h-3.3v3.564h3.3zm-.1 26.808h-3.12v3.335h3.12zm.53 26.09h-4.19v4.519h4.19zm-.77 27.539h-2.64v2.814h2.64zm1.21 25.365h-5.06v5.442h5.06zm-.35 27.044h-4.36v4.717h4.36zM1602.1 1.562h-14.68v15.812h14.68zm1.52 51.713h-17.71V72.33h17.71zm-.39 27.107h-16.92v18.236h16.92zm.15 53.22h-17.23v18.527h17.23zm-.25 80.319h-16.71v18.006h16.71zm.25 53.096h-17.23v18.527h17.23zm-.52 27.279h-16.17v17.374h16.17zm.62 52.693h-17.41v18.707h17.41zm.14 26.524h-17.71v18.992h17.71zm.21 79.81h-18.11v19.488h18.11zm-.06 26.722h-18v19.376h18zm.06 26.647h-18.11v19.488h18.11zm.13 53.213h-18.38v19.78h18.38zm-.19 53.568h-18v19.37h18zm-2.28 135.881h-13.43v14.449h13.43zm2.28 24.237h-18v19.37h18zm-8.01 35.325h-1.97v2.083h1.97zm1.29 25.277h-4.58v4.922h4.58zm1.51 25.048h-7.59v8.164h7.59zm-1.94 28.773h-3.69v3.998h3.69zM1578.24.576h-16.52V18.36h16.52zm0 26.642h-16.52V45.05h16.52zm.73 25.946h-18V72.51h18zm-1.95 28.779h-14.09v15.168h14.09zm1.57 24.955h-17.21v18.534h17.21zm.08 26.585h-17.4v18.763h17.4zm-3.38 30.404h-10.61v11.405h10.61zm.96 25.588h-12.54v13.494h12.54zm2.18 51.018h-16.92v18.242h16.92zm.21 26.468h-17.32v18.645h17.32zm0 26.696h-17.32v18.651h17.32zm.03 26.635h-17.4v18.763h17.4zm-.24 26.933h-16.92v18.242h16.92zm.24 26.461h-17.4v18.7h17.4zm.17 26.467h-17.71v19.048h17.71zm.13 26.53h-18v19.37h18zm0 26.703h-18v19.37h18zm0 53.362h-18v19.37h18zm.16 26.523h-18.3v19.687h18.3zm0 53.363h-18.3v19.686h18.3zm-.16 26.839h-18v19.37h18zm.16 26.548h-18.3v19.661h18.3zm-.29 26.988h-17.71v19.048h17.71zm0 26.696h-17.71v19.054h17.71zm-.25 26.926h-17.21v18.533h17.21zm.08 26.586h-17.4v18.731h17.4zm-6.83 60.744h-3.71v3.998h3.71zm.97 52.321h-5.65v6.081h5.65zM1553.25.75h-16.15v17.374h16.15zm0 26.703h-16.15v17.368h16.15zm.64 25.997h-17.41v18.768h17.41zm.08 26.584h-17.6V98.97h17.6zm-3.5 30.459h-10.6v11.405h10.6zm1.73 24.844h-14.02v15.056h14.02zm-3.77 30.744h-6.51v7.004h6.51zm4.44 21.893h-15.36v16.562h15.36zm.91 25.712h-17.22v18.527h17.22zm0 26.634h-17.22v18.534h17.22zm.19 53.164h-17.6v18.992h17.6zm.06 26.641h-17.71v19.054h17.71zm-.33 53.74h-17.03v18.298h17.03zm.27 26.344h-17.6v18.93h17.6zm.17 26.535h-17.9v19.259h17.9zm.18 26.468h-18.3v19.686h18.3zm-.13 26.839h-18v19.376h18zm0 53.387h-18v19.371h18zm0 26.672h-18v19.37h18zm0 26.691h-18v19.37h18zm-.16 53.511h-17.71v19.048h17.71zm-6.57 33.763h-4.57v4.922h4.57zm4.44 21.918h-13.43v14.449h13.43zm0 26.696h-13.43v14.449h13.43zm-4.09 31.067h-5.25v5.647h5.25zm-.43 27.162h-4.39v4.723h4.39zm-.35 27.043h-3.68v3.998h3.68zm6.22 20.003h-16.15v17.374h16.15zM1529.03.118h-17.3v18.645h17.3zm0 26.697h-17.3v18.644h17.3zm-.56 27.329h-16.15v17.374h16.15zm-1.08 27.855h-14.02v15.056h14.02zm.73 25.885h-15.47v16.618h15.47zm-2.54 29.424h-10.41v11.175h10.41zm3.5 22.873h-17.4v18.762h17.4zm-.08 53.505h-17.22v18.527H1529zm0 26.634h-17.22v18.534H1529zm.19 79.861h-17.62v18.936h17.62zm.06 26.634h-17.71v19.054h17.71zm-.06 26.753h-17.62v18.937h17.62zm-.35 26.988h-16.92v18.242h16.92zm.54 79.495h-18v19.376h18zm-.13 26.84h-17.71v19.054h17.71zm-.25 26.957h-17.21v18.533H1529zm.38 26.262h-18v19.37h18zm-.19 26.896h-17.62v18.936h17.62zm.06 26.64h-17.71v19.055h17.71zm-2.51 29.356h-12.72v13.699h12.72zm-1.35 28.147h-10.03v10.773h10.03zm-1.66 55.161h-6.7v7.208h6.7zm-1.05 27.824h-4.57v4.921h4.57zm-.3 26.982h-3.98v4.321h3.98zm.3 26.38h-4.57v4.922h4.57zm1.4 25.16h-7.4v7.965h7.4zm-1.27 28.061h-4.87v5.244h4.87zm.2 26.461h-5.25v5.647h5.25zM1504.39 0h-17.6v18.936h17.6zm0 26.64h-17.6v18.993h17.6zM1501 83.679h-10.82v11.64H1501zm-2.59 29.473h-5.65v6.081h5.65zm3.07 23.4h-11.78v12.682h11.78zm-1.81 28.605h-8.18v8.802h8.18zm4.58 21.77h-17.33v18.651h17.33zm0 26.703h-17.33v18.645h17.33zm0 26.69h-17.33v18.589h17.33zm-.05 26.697h-17.22v18.527h17.22zm0 26.697h-17.22v18.533h17.22zm.1 26.578h-17.43v18.763h17.43zm0 80.034h-17.43v18.763h17.43zm-.1 26.797h-17.22v18.533h17.22zm.1 26.578h-17.43v18.732h17.43zm.25 26.405h-17.92v19.259h17.92zm-.25 26.957h-17.43v18.732h17.43zm-.05 53.425h-17.33v18.62h17.33zm0 26.666h-17.33v18.651h17.33zm.14 26.548h-17.6v18.936h17.6zm-.97 27.713h-15.66v16.878h15.66zm.29 26.381h-16.25v17.486h16.25zm-2.71 29.616h-10.82v11.61H1501zm-1.51 28.32h-7.81v8.368h7.81zm3.25 49.855h-14.31v15.378h14.31zm-3.07 29.97h-8.18v8.801h8.18zm3.15 23.281h-14.47v15.608h14.47zm-4.7 31.761h-5.06v5.442h5.06zm-.11 26.783h-4.85v5.237h4.85zM1474.68 5.269h-7.77v8.398h7.77zm0 26.697h-7.77v8.337h7.77zm2.82 50.325h-13.42v14.418h13.42zm1.03 25.593h-15.47v16.618h15.47zm-2.53 29.424h-10.41v11.175H1476zm-2.4 29.238h-5.62v6.081h5.62zm5.71 20.56h-17.04v18.298h17.04zm.08 79.911h-17.22v18.527h17.22zm-.38 53.796h-16.44v17.722h16.44zm.73 25.891h-17.89v19.283h17.89zm-.3 80.357h-17.3v18.62h17.3zm-.13 53.511h-17.04v18.329h17.04zm.08 26.578h-17.22v18.528h17.22zm-.14 26.84h-16.92v18.242h16.92zm.19 53.164h-17.3v18.651h17.3zm-1.64 28.489h-14.02v15.056h14.02zm-1.5 28.289h-11.01v11.839h11.01zm1.5 25.079h-14.02v15.056h14.02zm-2.47 56.021h-9.07v9.732h9.07zm-1.27 28.061h-6.53v7.004h6.53zm-1.26 28.023h-4.01v4.321h4.01zm1.88 24.645h-7.77v8.392h7.77zm1.99 24.552h-11.76v12.658h11.76zm-3.68 30.664h-4.39v4.717h4.39zm1.8 24.756h-7.99v8.567h7.99zM1450.52 4.574h-9.04v9.732h9.04zm0 26.698h-9.04v9.725h9.04zm3.3 49.804h-15.65v16.848h15.65zm-1.21 28.029h-13.23v14.189h13.23zm0 26.635h-13.23v14.244h13.23zm-3.54 30.515h-6.14v6.601h6.14zm2.42 24.093h-10.98v11.814h10.98zm2.71 23.74h-16.43v17.659h16.43zm.41 26.232h-17.22v18.534h17.22zm.05 26.641h-17.33v18.645h17.33zm-2.05 28.897h-13.23v14.251h13.23zm2.35 24.204h-17.92v19.228h17.92zm.08 26.58h-18.08v19.457h18.08zm-.06 26.697h-18v19.345h18zm-.12 26.814h-17.71v19.048h17.71zm-.17 26.852h-17.41v18.732h17.41zm-.62 27.36h-16.14v17.374h16.14zm.3 26.38h-16.74v18.013h16.74zm0 26.697h-16.74v17.982h16.74zm-.11 53.45h-16.52V578.7h16.52zm-2.67 56.256h-11.19v12.044h11.19zm.2 26.461h-11.58v12.478h11.58zm1.2 25.402H1439v15.056h13.99zm-1.01 27.762H1440v12.887h11.98zm-1.08 27.856h-9.82v10.568h9.82zm-1.11 27.881h-7.58v8.163h7.58zm-.1 26.784h-7.4v7.965h7.4zm-.44 27.161h-6.51v7.01h6.51zm.84 25.792h-8.18v8.802h8.18zm-2.77 29.653h-2.64v2.833h2.64zm-.46 27.162h-1.75v1.878h1.75zm-22.3-883.21h-6.7v7.24h6.7zm0 26.696h-6.7v7.184h6.7zm-.19 26.87h-6.33v6.83h6.33zm.61 26.002h-7.58v8.164h7.58zm2.94 23.567h-13.43v14.418h13.43zm1.5 25.073h-16.43v17.659h16.43zm-1.96 28.723h-12.54v13.55h12.54zm1.32 25.309h-15.17v16.327h15.17zm-2.85 29.764h-9.45v10.135h9.45zm2.31 24.144h-14.1v15.23h14.1zm1.48 25.135h-17.03v18.298h17.03zm-.83 27.564h-15.36v16.562h15.36zm1.32 25.308h-18v19.339h18zm-.54 27.218h-16.93v18.242h16.93zm.18 26.523h-17.33v18.589h17.33zm-2.77 29.585h-11.76v12.682h11.76zm.19 26.511h-12.16v13.085h12.16zm2.05 24.465h-16.25v17.485h16.25zm.16 79.917h-16.55v17.783h16.55zm-.22 26.894h-16.14v17.368h16.14zm-.37 53.773h-15.36v16.531h15.36zm-1.08 54.521h-13.24v14.244h13.24zm-1.02 27.793h-11.2v12.044h11.2zm-.68 27.422h-9.82v10.568h9.82zm-.72 27.447h-8.37v9.007h8.37zm-1.13 27.912h-6.14v6.577h6.14zm1.13 25.482h-8.37v9.006h8.37zm-1.56 28.345h-5.25v5.647h5.25zm-.54 53.939h-4.17v4.519h4.17zM1397.51 8.226h-2.23v2.43h2.23zm0 26.696h-2.23v2.436h2.23zm.11 26.579h-2.44v2.61h2.44zm.19 26.461h-2.82v3.068h2.82zm-.19 26.927h-2.44v2.609h2.44zm6.51 19.692h-15.47v16.618h15.47zm-.37 27.1h-14.69v15.806h14.69zm-2.27 29.076h-10.19v11.002h10.19zm-.18 26.871h-9.82v10.593h9.82zm-2.18 29.064h-5.46v5.852h5.46zm3.79 22.587h-13.04v14.015h13.04zm.11 26.579h-13.23v14.251h13.23zm2 24.552h-17.23v18.534h17.23zm-.41 80.438h-16.44v17.721h16.44zm-.54 27.26h-15.36v16.532h15.36zm.16 53.214h-15.66v16.854h15.66zm.05 26.641h-15.77v16.94h15.77zm.08 26.579h-15.95v17.176h15.95zm-.59 27.304h-14.77v15.899h14.77zm.35 26.318h-15.47v16.649h15.47zm-.35 27.044h-14.77v15.924h14.77zm-.91 27.683h-12.94v13.928h12.94zm-.59 27.303h-11.76v12.682h11.76zm.59 26.059h-12.94v13.928h12.94zm-4.47 58.197h-3.98v4.283h3.98zm2.35 24.174h-8.67v9.298h8.67zm-1.27 28.036h-6.14v6.602h6.14zm-1.32 28.11h-3.5v3.762h3.5zm.78 25.283h-5.57v5.994h5.57zm-.89 28.166h-3.31v3.564h3.31zm-24.59-854.053h-3.71v3.936h3.71zm-.43 27.161h-2.82v3.006h2.82zm-.22 26.87h-2.42v2.604h2.42zm0 26.692h-2.42v2.609h2.42zm.11 26.585h-2.63v2.839h2.63zm4.87 21.427h-12.37v13.321h12.37zm-.48 27.218h-11.38v12.279h11.38zm-4.5 31.5h-2.42v2.61h2.42zm1.86 24.726h-6.13v6.545h6.13zm-.24 26.926h-5.65v6.08h5.65zm4.92 21.373h-15.47v16.68h15.47zm.24 26.466h-15.95v17.139h15.95zm-4.92 31.959h-6.13v6.602h6.13zm4.41 21.893h-14.96v16.097h14.96zm-2.55 29.419h-9.85v10.593h9.85zm.48 26.188h-10.81v11.61h10.81zm1.83 24.695h-14.47v15.607h14.47zm.11 26.585h-14.69v15.812h14.69zm.05 26.634h-14.8v15.899h14.8zm-1.02 134.519h-12.75v13.699h12.75zm-.88 27.627h-10.98v11.814h10.98zm1.42 51.855h-13.83v14.858h13.83zm-2.4 29.245h-9.04v9.726h9.04zm-2.95 29.876h-3.13v3.335h3.13zm1.26 52.005h-5.65v6.081h5.65zm-.84 27.565h-3.98v4.283h3.98zm1.38 25.221h-6.73v7.24h6.73zm-26.32-852.23h-3.68v3.936h3.68zm-.72 27.446h-2.24v2.436h2.24zm-.43 27.168h-1.38v1.445h1.38zm.43 26.226h-2.24v2.374h2.24zm.53 26.12h-3.3v3.533h3.3zm5.92 46.966h-15.17v16.327h15.17zm-2.25 29.127h-10.63v11.405h10.63zm-1.62 28.431h-7.4v7.934h7.4zm2.77 23.685h-12.94v13.897h12.94zm-2.88 29.765h-7.18v7.76h7.18zm-.43 53.852h-6.32v6.775h6.32zm3.56 22.878h-13.43v14.418h13.43zm.29 26.35h-14.02v15.056h14.02zm-.11 26.765h-13.8v14.852h13.8zm.16 26.523h-14.12v15.174h14.12zm.08 53.276h-14.28v15.378h14.28zm.11 26.578h-14.5v15.577h14.5zm.08 26.586h-14.69v15.806h14.69zm-.51 27.242h-13.64v14.654h13.64zm-1.02 27.793h-11.6v12.447h11.6zm.67 52.644h-12.94v13.897h12.94zm-1.56 28.346h-9.82v10.568h9.82zm-1.94 28.779h-5.94v6.397h5.94zm-1.75 28.581h-2.45v2.603h2.45zm0 26.666h-2.45v2.634h2.45zm3.69 22.699h-9.82v10.593h9.82zm.59 26.058h-11v11.845h11zm-2.04 28.897h-6.92v7.445h6.92zm-.3 26.982h-6.32v6.806h6.32zM1323.76 7.587h-3.49v3.762h3.49zm0 26.696h-3.49v3.763h3.49zm-.18 26.871h-3.12v3.36h3.12zm-.46 27.161h-2.23v2.374h2.23zm.22 26.461h-2.64v2.839h2.64zm.32 26.35h-3.31v3.533h3.31zm-.08 26.753h-3.12v3.359h3.12zm.3 26.405h-3.72v3.942h3.72zm.67 25.946h-5.06v5.443h5.06zm-.25 26.927h-4.57v4.922h4.57zm2.43 24.093h-9.45v10.128h9.45zm.29 26.344h-10.01v10.773h10.01zm1.45 25.135h-12.94v13.896h12.94zm.7 25.94h-14.31v15.403h14.31zm.33 26.293h-14.99v16.097h14.99zm-.09 26.753h-14.79v15.924h14.79zm-.24 26.97h-14.31v15.372h14.31zm-.11 26.783h-14.09v15.174h14.09zm-.24 26.957h-13.61v14.653h13.61zm-.1 26.784h-13.43v14.449h13.43zm-.19 26.9h-13.03v14.015h13.03zm0 26.666h-13.03v14.04h13.03zm.11 26.579h-13.24v14.245h13.24zm-.11 26.815h-13.03v14.008h13.03zm-.35 27.038h-12.35v13.29h12.35zm0 26.672h-12.35v13.32h12.35zm-2.18 29.04h-7.96v8.597h7.96zm-1.8 28.637h-4.36v4.723h4.36zm2.16 24.378h-8.67v9.322h8.67zm-3.37 30.285h-1.94v2.113h1.94zm-.44 27.162h-1.07v1.159h1.07zm.14 53.214h-1.35v1.475h1.35zm2.69 23.801h-6.73v7.24h6.73zM1298.42 8.163h-2.4v2.61h2.4zm0 26.642h-2.4v2.665h2.4zm.21 53.157h-2.82v3.068h2.82zm2.05 24.496h-6.91v7.469h6.91zm-.65 27.392h-5.62v6.08h5.62zm1.7 24.842h-9.04v9.726h9.04zm.49 26.177h-10.02v10.773h10.02zm.21 26.461h-10.42v11.176h10.42zm.19 26.467h-10.79v11.641h10.79zm-.78 27.509h-9.23v9.961h9.23zm1.37 25.247h-11.97v12.855h11.97zm-3.02 29.938h-5.94v6.372h5.94zm3.64 49.457h-13.24v14.188h13.24zm0 26.635h-13.24v14.244h13.24zm-.25 26.944h-12.72v13.693h12.72zm0 26.666h-12.72v13.724h12.72zm-.1 26.809h-12.51v13.494h12.51zm-.38 27.105h-11.76v12.658h11.76zm0 26.666h-11.76v12.689h11.76zm.84 25.798h-13.43v14.449h13.43zm-.24 26.957h-12.95v13.928h12.95zm-.41 27.1h-12.16v13.085h12.16zm-2.72 29.622h-6.7v7.209h6.7zm1.37 25.222h-9.44v10.134h9.44zm-.64 27.359h-8.18v8.802h8.18zm-1.27 28.03h-5.62v6.081h5.62zm-.53 27.273h-4.55v4.921h4.55zm-.73 54.143h-3.12v3.36h3.12zm-.35 27.044h-2.4v2.635h2.4zm1.61 24.961h-5.62v6.081h5.62zm-1.26 28.055h-3.12v3.359h3.12zM1273.4 8.398h-1.94v2.083h1.94zm.13 53.214h-2.21v2.436h2.21zm.54 26.12h-3.28v3.534h3.28zm-.76 27.509h-1.77v1.909h1.77zm4.6 21.72h-11v11.814h11zm-2.95 29.877h-5.06v5.442h5.06zm.91 25.711h-6.91v7.413h6.91zm2.04 24.496h-11v11.814h11zm.41 52.929h-11.78v12.682h11.78zm-.89 27.62h-10.03v10.773h10.03zm1.38 25.19h-12.76v13.724h12.76zm.62 26.059h-14.02v15.056h14.02zm-.84 27.564h-12.32v13.265h12.32zm-.08 26.759h-12.16v13.085h12.16zm0 26.678h-12.16v13.085h12.16zm0 26.666h-12.16v13.085h12.16zm0 26.696h-12.16v13.091h12.16zm.19 26.468h-12.54v13.519h12.54zm-.27 27.013h-12v12.861h12zm-1.56 55.042h-8.88v9.527h8.88zm-1.91 28.723h-5.06v5.442h5.06zm0 26.666h-5.06v5.442h5.06zm-.67 27.422h-3.71v3.998h3.71zm0 26.696h-3.71v3.967h3.71zm.21 53.096h-4.17v4.519h4.17zm-1.39 54.9h-1.35v1.445h1.35zm2.9 23.541h-7.19v7.73h7.19zm-2.61 29.505h-1.94v2.083h1.94zM1248.29 8.746h-1.34v1.45h1.34zm0 26.641h-1.34v1.506h1.34zm.76 25.94h-2.83v3.006h2.83zm.13 26.523h-3.09v3.36h3.09zm-.77 27.504h-1.57v1.679h1.57zm.42 26.237h-2.42v2.603h2.42zm1.62 24.955h-5.65v6.081h5.65zm-.19 26.87h-5.25v5.678h5.25zm1.38 25.247h-8v8.573h8zm.07 26.578h-8.15v8.746h8.15zm-1.02 27.744h-6.11v6.602h6.11zm.3 26.407h-6.73v7.177h6.73zm1.07 25.537h-8.85v9.496h8.85zm1.94 24.551h-12.75v13.724H1254zm.16 26.524h-13.05v14.008h13.05zm-.95 27.676h-11.16v12.043h11.16zm-.08 26.771h-11v11.839h11zm.98 52.321h-12.94v13.935h12.94zm-.38 27.1h-12.16v13.085h12.16zm.27 26.374h-12.75v13.73H1254zm-.38 27.107h-11.97v12.886h11.97zm-2.31 29.157h-7.37v7.965h7.37zm.4 52.959h-8.15v8.771h8.15zm-1.45 54.925h-5.25v5.64h5.25zm-.78 27.54h-3.71v3.967h3.71zm2.16 24.378h-8v8.566h8zm-1.73 28.488h-4.57v4.921h4.57zm.78 25.86h-6.11v6.602h6.11zm-2.28 29.151h-1.57v1.679h1.57zm.53 26.089h-2.64v2.833h2.64zm-.11 26.815h-2.42v2.603h2.42zM1223.38 8.857h-1.07v1.16h1.07zm0 26.703h-1.07v1.16h1.07zm.33 52.985h-1.75v1.915h1.75zm.1 26.579h-1.94v2.145h1.94zm2.48 24.031h-6.89v7.414h6.89zm-.38 27.1h-6.14v6.601h6.14zm-.64 27.397h-4.85v5.207h4.85zm1.34 51.881h-7.59v8.17h7.59zm-.81 27.571h-5.92v6.365h5.92zm.3 26.398h-6.54v7.004h6.54zm.42 26.183h-7.39v7.989h7.39zm1.52 25.067h-10.42v11.176h10.42zm-.41 27.105H1218v10.364h9.63zm1.29 25.309h-12.16v13.085h12.16zm-.1 26.765h-11.95v12.886h11.95zm-1.89 28.723h-8.18v8.802h8.18zm.54 52.811h-9.25v9.93h9.25zm1.16 25.42h-11.6v12.452h11.6zm-3.26 30.205h-5.06v5.442h5.06zm-1.32 28.079h-2.45v2.603h2.45zm2.24 24.267h-6.89v7.444h6.89zm-1.62 55.104h-3.69v3.998h3.69zm-.27 27.013h-3.12v3.359h3.12zm1.7 24.843h-6.54v7.011h6.54zm.73 25.916h-7.97v8.566h7.97zm-.12 26.777h-7.77v8.368h7.77zm-1.15 27.942h-5.47v5.845h5.47zm-.29 26.989h-4.85v5.237h4.85zm-1.56 55.042h-1.75v1.878h1.75zM1198.57 8.857h-1.08v1.16h1.08zm0 26.703h-1.08v1.16h1.08zm.7 25.941h-2.45v2.61h2.45zM1199 88.49h-1.93v2.082h1.93zm-.11 26.751h-1.72v1.909h1.72zm-.16 26.927h-1.37v1.45h1.37zm.16 26.461h-1.72v1.853h1.72zm4.36 22.011h-10.43v11.231h10.43zm-3.47 30.397h-3.5v3.763h3.5zm.24 26.405h-3.98v4.345h3.98zm.76 25.947h-5.46v5.851h5.46zm.43 26.17h-6.35v6.83h6.35zm1.34 25.252h-9.04v9.725h9.04zm0 26.697h-9.04v9.725h9.04zm.97 25.599h-10.98v11.815h10.98zm-2.04 28.891h-6.89v7.413h6.89zm2.64 23.846h-12.16v13.085h12.16zm.22 26.468h-12.57v13.487h12.57zm-2.86 29.702h-6.89v7.444h6.89zm-.49 27.217h-5.92v6.397h5.92zm.91 25.687h-7.74v8.399h7.74zm-1.77 28.637h-4.19v4.487h4.19zm0 26.69h-4.19v4.488h4.19zm1.08 25.507h-6.35v6.806h6.35zm-.75 27.483h-4.85v5.244h4.85zm-1.19 27.999h-2.45v2.61h2.45zm.86 52.439h-4.19v4.488h4.19zm3.31 23.101h-10.79v11.641h10.79zm-.77 27.534h-9.26v9.936h9.26zm-2.54 56.084h-4.19v4.487h4.19zm-.86 27.627h-2.45v2.603h2.45zm-.88 27.62h-.68v.75h.68zm-24.7-880.663h-.89v.93h.89zm0 26.696h-.89v.93h.89zm0 26.698h-.89v.929h.89zm.24 26.41h-1.37v1.445h1.37zm0 26.691h-1.37v1.45h1.37zm.1 26.579h-1.56v1.68h1.56zm-.1 26.759h-1.37v1.506h1.37zm.19 26.523h-1.75v1.853h1.75zm.78 25.822h-3.32v3.533h3.32zm.64 26.003h-4.57v4.928h4.57zm0 26.697h-4.57v4.921h4.57zm-.21 26.87h-4.17v4.512h4.17zm0 26.697h-4.17v4.512h4.17zm1.5 25.072h-7.21v7.761h7.21zm1.03 25.594h-9.23v9.905h9.23zm-.73 54.106h-7.78v8.368h7.78zm-.43 27.156h-6.91v7.444h6.91zm-.83 27.564h-5.25v5.647h5.25zm-1.22 27.998h-2.82v3.044h2.82zm2.05 24.496h-6.91v7.414h6.91zm-.29 26.983h-6.33v6.806h6.33zm-.11 26.789h-6.14v6.601h6.14zm.11 26.573h-6.33v6.806h6.33zm-.74 27.483h-4.86v5.244h4.86zm-.34 27.044h-4.17v4.519h4.17zm-1.14 27.906h-1.93v2.082h1.93zm1.03 52.265h-3.98v4.283h3.98zm.21 53.164h-4.38v4.692h4.38zm-1.31 28.085h-1.75v1.878h1.75zm-.35 27.044h-1.08v1.159h1.08zm0 26.696h-1.08v1.16h1.08zM1148.88 8.976h-.89v.93h.89zm0 26.696h-.89v.93h.89zm0 53.393h-.89v.93h.89zm.78 25.824h-2.42v2.609h2.42zm-.43 27.161h-1.56v1.68h1.56zm2.29 24.205h-6.14v6.601h6.14zm-2.19 29.077h-1.77v1.853h1.77zm.54 26.052h-2.85v3.068h2.85zm-.21 26.926h-2.42v2.609h2.42zm.54 26.12h-3.5v3.762h3.5zm.32 52.991h-4.17v4.512h4.17zm.37 26.287H1146v5.269h4.89zm0 26.697H1146v5.269h4.89zm.08 26.578h-5.05v5.443h5.05zm0 53.351h-5.05v5.442h5.05zm.2 26.492h-5.44v5.852h5.44zm.1 26.579h-5.65v6.05h5.65zm.33 26.319h-6.3v6.806h6.3zm.21 53.164h-6.73v7.208h6.73zm-1.51 28.29h-3.71v3.998h3.71zm1.22 25.388h-6.14v6.571h6.14zm.08 26.58h-6.3v6.805h6.3zm-1.16 54.608h-3.98v4.283h3.98zm-1.03 27.8h-1.93v2.082h1.93zm2.19 51.012h-6.3v6.806h6.3zm-1.3 28.086h-3.71v3.967h3.71zm-.75 54.15h-2.2v2.405h2.2zM1124.1 8.976h-.89v.93h.89zm0 26.696h-.89v.93h.89zm0 26.698h-.89v.929h.89zm.07 26.577h-1.04v1.16h1.04zm-.07 53.449h-.89v.93h.89zm.32 26.35h-1.56v1.68h1.56zm0 26.642h-1.56v1.679h1.56zm.21 26.522h-1.96v2.083h1.96zm.22 26.4h-2.42v2.609h2.42zm0 26.703h-2.42v2.609h2.42zm-.22 26.925h-1.96v2.083h1.96zm1.11 25.483h-4.17v4.512h4.17zm.18 26.461h-4.57v4.921h4.57zm.17 53.22h-4.87v5.212h4.87zm.19 26.449h-5.25v5.647h5.25zm0 53.362h-5.25v5.647h5.25zm.42 26.232h-6.1v6.57h6.1zm.62 52.667h-7.37v7.965h7.37zm-.43 27.163h-6.51v7.01h6.51zm-.26 27.012h-5.95v6.366h5.95zm.19 26.461h-6.33v6.806h6.33zm.18 22.569h-6.73v11.138h6.73zm-.11 30.713h-6.51v7.005h6.51zm.22 26.461h-6.91v7.445h6.91zm-2.15 28.984h-2.64v2.839h2.64zm-.33 27.044h-1.96v2.113h1.96zm2.26 24.236h-6.51v7.01h6.51zm-.42 27.155h-5.65v6.081h5.65zm.53 26.12h-6.73v7.209h6.73zm-2.15 28.985h-2.42v2.603h2.42zM1099.29 8.976h-.86v.93h.86zm0 26.696h-.86v.93h.86zm.11 53.275h-1.08v1.16h1.08zm.13 26.524h-1.37v1.45h1.37zm-.13 53.505h-1.08v1.159h1.08zm.13 26.529h-1.37v1.506h1.37zm.08 26.573h-1.53v1.68h1.53zm.46 26.232h-2.45v2.609h2.45zm.54 26.12h-3.53v3.762h3.53zm.43 52.873h-4.39v4.748h4.39zm0 26.697h-4.39v4.692h4.39zm.24 26.405h-4.84v5.269h4.84zm0 26.697h-4.84v5.212h4.84zm.22 26.449h-5.27v5.647h5.27zm0 26.696h-5.27v5.641h5.27zm-.11 26.783h-5.06v5.443h5.06zm.27 26.375h-5.62v6.05h5.62zm.8 25.829h-7.21v7.761h7.21zm-.35 27.075h-6.53v7.004h6.53zm-.18 26.87h-6.14v6.601h6.14zm.18 53.158h-6.53v7.035h6.53zm0 26.696h-6.53v7.011h6.53zm.2 53.158h-6.89v7.445h6.89zm-2.7 56.257h-1.53v1.649h1.53zm.22 24.379h-1.94v2.083h1.94zm.24 28.494h-2.45v2.635h2.45zm.43 26.233h-3.31v3.558h3.31zm0 26.665h-3.31v3.564h3.31zM1074.49 8.976h-.87v.93h.87zm0 26.696h-.87v.93h.87zm0 26.698h-.87v.929h.87zm0 26.695h-.87v.93h.87zm.1 26.58h-1.08v1.103h1.08zm.24 26.405h-1.56v1.68h1.56zm-.08 26.759h-1.37v1.506h1.37zm.43 26.231h-2.25v2.436h2.25zm.43 52.929h-3.12v3.304h3.12zm-.24 26.926h-2.61v2.838h2.61zm.78 25.829h-4.2v4.512h4.2zm.33 79.681h-4.85v5.269h4.85zm0 26.697h-4.85v5.212h4.85zm.21 26.449h-5.27v5.647h5.27zm.19 26.467h-5.65v6.08h5.65zm-.08 26.808h-5.46v5.852h5.46zm0 26.672h-5.46v5.876h5.46zm.42 26.226h-6.34v6.806h6.34zm.2 26.467h-6.7v7.209h6.7zm1.45 51.8h-9.63v10.364h9.63zm-1.37 81.504h-6.89v7.444h6.89zm1.66 51.596h-10.22v11.002h10.22zm-1.01 54.466h-8.18v8.801h8.18zm-.49 27.216h-7.21v7.73h7.21zm-.44 27.156h-6.34v6.806h6.34zM1049.7 8.976h-.88v.93h.88zm0 26.696h-.88v.93h.88zm0 26.698h-.88v.929h.88zm.08 26.577h-1.07v1.16h1.07zm-.08 26.759h-.88v.986h.88zm0 26.69h-.88v.93h.88zm0 26.698h-.88v.93h.88zm.43 26.238h-1.75v1.853h1.75zm-.08 26.746h-1.56v1.68h1.56zm0 26.696h-1.56v1.686h1.56zm.44 26.239h-2.43v2.609h2.43zm.74 25.822h-3.98v4.283h3.98zm.11 26.586h-4.17v4.512h4.17zm.22 26.461h-4.58v4.921h4.58zm.33 79.669h-5.25v5.647h5.25zm.34 26.318h-5.94v6.397h5.94zm-.13 80.201h-5.65v6.081h5.65zm.51 52.818h-6.7v7.208h6.7zm.11 26.548h-6.92v7.444h6.92zm-.11 53.48h-6.7v7.24h6.7zm.11 26.579h-6.92v7.444h6.92zm.13 26.523h-7.21v7.76h7.21zm-1.93 28.779h-3.31v3.564h3.31zm-.25 26.957h-2.82v3.043h2.82zm3.01 50.121h-8.85v9.527h8.85zm.19 26.492h-9.22v9.93h9.22zm-.54 27.242h-8.18v8.802h8.18zM1024.81 9.093h-.69v.75h.69zm0 26.697h-.69v.694h.69zm.08 26.58h-.88v.929h.88zm0 53.336h-.88v.986h.88zm0 26.69h-.88v.93h.88zm0 53.394h-.88v.93h.88zm1 25.594h-2.85v3.068h2.85zm.43 52.934h-3.71v3.992h3.71zm0 26.691h-3.71v3.936h3.71zm.33 26.294h-4.37v4.748h4.37zm.1 26.579h-4.57v4.921h4.57zm.16 53.22h-4.9v5.212h4.9zm.51 79.47h-5.94v6.366h5.94zm.11 26.573h-6.13v6.57h6.13zm.19 79.83h-6.51v7.01h6.51zm.19 26.461h-6.92v7.444h6.92zm.13 26.554h-7.18v7.73h7.18zm-.21 26.926h-6.73v7.24h6.73zm.21 26.436h-7.18v7.729h7.18zm-1.93 55.445h-3.28v3.564h3.28zm2.95 23.511h-9.22v9.936h9.22zm-.69 27.453h-7.81v8.392h7.81zm-1.62 28.432h-4.57v4.922h4.57zm2.31 50.84h-9.22v9.961h9.22zm-29.05-875.94h-.702v.75h.702zm0 26.697h-.702v.694h.702zm0 26.696h-.702v.695h.702zm.11 26.579h-.892v.93h.892zm0 26.641h-.892v.986h.892zm.53 52.812h-1.964v2.082h1.964zm-.45 27.161h-1.053v1.159h1.053zm.88 25.705h-2.82v3.068h2.82zm.14 26.585h-3.093v3.304h3.093zm.19 26.461h-3.501v3.762h3.501zm.35 52.991h-4.174v4.512h4.174zm.19 26.461h-4.577v4.921h4.577zm.15 26.523h-4.865v5.269h4.865zm0 26.697h-4.865v5.212h4.865zm.19 26.449h-5.245v5.647h5.245zm.09 26.578h-5.439v5.845h5.439zm.26 26.443h-5.941v6.366h5.941zm.08 26.573h-6.102v6.57h6.102zm.11 26.579h-6.321v6.806h6.321zm0 26.666h-6.321v6.806h6.321zm.44 26.207h-7.187v7.76h7.187zm-.14 56.697h-6.915v4.283h6.915zm0 23.535h-6.915v7.413h6.915zm-.3 53.679h-6.321v6.806h6.321zm-.61 27.366h-5.06v5.442h5.06zm1.13 78.782h-7.377v7.965h7.377zm.39 26.263h-8.147v8.802h8.147zm.25 26.436h-8.662v9.323h8.662zM975.203 9.093h-.674v.75h.674zm0 26.697h-.674v.694h.674zm0 26.696h-.674v.695h.674zm0 53.332h-.674v.75h.674zm.104 26.578h-.859v.93h.859zm0 26.698h-.859v.93h.859zm.863 52.408h-2.609v2.839h2.609zm.346 53.046h-3.306v3.533h3.306zm.893 132.435h-5.057v5.443h5.057zm.109 26.568h-5.276v5.647h5.276zm.156 26.467h-5.622v6.08h5.622zm.276 79.793h-6.14v6.601h6.14zm.185 26.498h-6.538v7.004h6.538zm-.104 53.443h-6.325v6.806h6.325zm-1.757 28.581h-2.822v3.043h2.822zm2.05 24.496h-6.888v7.413h6.888zm.162 26.523h-7.212v7.729h7.212zm.374 79.626h-7.966v8.603h7.966zm.11 53.269h-8.179v8.802h8.179zm.213 53.108h-8.634v9.323h8.634zM950.418 9.093h-.675v.75h.675zm0 26.697h-.675v.694h.675zm0 26.696h-.675v.695h.675zm0 26.642h-.675v.75h.675zm.086 26.578h-.864v.986h.864zm.266 26.462h-1.372v1.45h1.372zm.431 52.872h-2.258v2.436h2.258zm.265 53.04h-2.794v3.075h2.794zm.161 26.524h-3.122v3.359h3.122zm.3 26.405h-3.687v3.936h3.687zm0 26.697h-3.687v3.942h3.687zm.236 26.411h-4.194v4.513h4.194zm.869 132.455h-5.921v6.366h5.921zm0 26.659h-5.921v6.397h5.921zm.288 53.078h-6.508v7.004h6.508zm.116 53.245h-6.699v7.239h6.699zm0 26.696h-6.699v7.209h6.699zm.725 52.581h-8.179v8.802h8.179zm-.218 26.901h-7.748v8.368h7.748zm.218 26.462h-8.179v8.802h8.179zm.427 52.898h-9.038v9.725h9.038zm-.185 26.9h-8.663v9.323h8.663zm-.622 54.027h-7.424v7.965h7.424zM925.615 9.093h-.674v.75h.674zm0 26.697h-.674v.694h.674zm0 26.696h-.674v.695h.674zm0 26.642h-.674v.75h.674zm.185 53.157h-1.078v1.159h1.078zm-.185 26.926h-.674v.694h.674zm0 26.697h-.674v.701h.674zm.887 25.711h-2.425v2.61h2.425zm.109 26.579h-2.638v2.839h2.638zm.075 26.579h-2.822v3.013h2.822zm.565 79.452h-3.98v4.283h3.98zm.219 26.467h-4.384v4.693h4.384zm.426 79.551h-5.242v5.647h5.242zm.219 26.461h-5.651v6.081h5.651zm.138 26.523h-5.944v6.397h5.944zm.075 26.58h-6.135v6.601h6.135zm.109 26.579h-6.324v6.806h6.324zm0 26.696h-6.324v6.806h6.324zm.104 26.585h-6.509v7.004h6.509zm.328 26.319h-7.211v7.73h7.211zm.104 26.578h-7.396v7.934h7.396zm.109 26.579h-7.586v8.164h7.586zm.922 52.352h-9.446v10.159h9.446zm-.225 26.896h-9.037v9.756h9.037zm-.426 53.852h-8.179v8.802h8.179zm0 26.672h-8.179v8.802h8.179zm-2.235 29.102h-3.686v3.997h3.686zM900.726 9.21h-.484v.522h.484zm0 26.697h-.484v.52h.484zm.3 26.344h-1.078v1.16h1.078zm-.109 53.455h-.888v.986h.888zm.109 26.579h-1.078v1.159h1.078zm-.19 26.926h-.698v.694h.698zm.858 52.408h-2.42v2.61h2.42zm.109 53.276h-2.638v2.838h2.638zm.104 26.579h-2.852v3.006h2.852zm.432 52.873h-3.71v3.998h3.71zm.432 52.866h-4.574v4.921h4.574zm.161 26.542h-4.896v5.238h4.896zm.161 26.492h-5.218v5.647h5.218zm.213 53.158h-5.65v6.05h5.65zm.242 53.102h-6.134v6.601h6.134zm.513 79.483h-7.183v7.73h7.183zm.109 53.244h-7.372v7.965h7.372zm.484 26.176h-8.34v9.006h8.34zm-.08 53.475h-8.179v8.777h8.179zm-.19 106.928h-7.8v8.368h7.8zM17.736.063H.328v18.953h17.406zm0 26.968H.328v18.954h17.406zm0 26.963H.328v18.96h17.406zm-.11 27.087H.409v18.716h17.217zm0 26.905H.409v18.722h17.217zm.058 26.913H.358v18.835h17.326zm0 53.931H.358v18.841h17.326zm0 26.975H.358v18.834h17.326zm.052 26.906H.328v18.897h17.406zm0 26.911H.328v18.954h17.406zm0 26.97H.328v18.954h17.406zm.08 26.849H.219v19.129h17.597zm-.08 27.081H.328v18.898h17.406zm.132 26.793H.162v19.186h17.706zm.109 26.793H.057v19.48h17.92zm.081 26.863H-.022v19.686h18.08zm.104 26.855H-.132v19.887h18.294zm0 26.969H-.132v19.887h18.294zm.058 26.906H-.185v19.975h18.403zm-.058 27H-.132v19.887h18.294zm-.127 54.074h-18v19.568h18zm-.058 80.913H.057v19.479h17.92zm-.109 27.081H.162v19.248h17.706zm-.968 27.989H1.135v17.144H16.9zm-6.992 34.576H8.156v1.897h1.752zm.242 26.699H7.914v2.43h2.234zm.72 26.155H7.16v4.038h3.71zm.973 25.911h-5.65v6.142h5.65zm-.374 27.38H6.596v5.298h4.873zM42.486.12H25.16v18.834h17.326zm-1.319 55.339H26.479v15.967h14.688zm1.348 25.503H25.108v18.897h17.407zm-.081 27.024H25.212v18.722h17.222zm.081 26.857H25.108v18.954h17.407zm0 26.968H25.108v18.953h17.407zm0 26.962H25.108v18.96h17.407zm-.029 27.032H25.16v18.834h17.326zm.029 26.906H25.108v18.897h17.407zm.109 80.73H25.028v19.129h17.596zm0 53.931H25.028v19.129h17.596zm.133 26.736h-17.89v19.48h17.89zm.242 80.624h-18.38v20.012h18.38zm-.023 53.969h-18.3v19.887h18.3zm.023 26.906h-18.38v19.981h18.38zm-.19 27.168h-18v19.568h18zm0 26.945h-18v19.567h18zm-.323 27.342H25.16v18.804h17.326zm.138 26.8H25.028v19.123h17.596zm0 26.938H25.028v19.154h17.596zm-2.828 30.037H27.821v13.018h11.975zm-4.763 32.146h-2.42v2.63h2.42zm.541 26.349h-3.502v3.832h3.502zm2.126 24.633h-7.777v8.478H37.7zm-2.126 56.241h-3.502v3.807h3.502zM67.214.175H49.99v18.722h17.223zm-1.809 55.866h-13.61v14.796h13.61zM67.076 81.2H50.153v18.422h16.923zm.19 53.699H49.968v18.835h17.298zm.19 26.793H49.749v19.242h17.707zm-.138 27.081H49.91v18.96h17.406zm-.104 27.088H49.99v18.716h17.223zm.104 26.85H49.91v18.897h17.406zm-.052 26.968H49.968v18.834h17.298zm-.052 27.025H49.99v18.722h17.223zm.052 26.912H49.968v18.835h17.298zm.19 53.699H49.749v19.186h17.707zm.109 26.793H49.67v19.48h17.896zm.098 26.863H49.56v19.686h18.104zm.144 53.761h-18.38v20.012h18.38zm.052 26.913H49.375v20.093h18.484zm-.109 27.056H49.456v19.887h18.293zm-.087 27.056H49.56v19.686h18.104zm-.098 27.081H49.67v19.455h17.896zm.242 26.675h-18.38v20.005h18.38zm-.489 27.494H49.91v18.922h17.406zm.109 26.855h-17.62v19.123h17.62zm-.109 27.057H49.91v18.922h17.406zm-.427 27.432H50.343v17.989H66.89zm-7.051 88.538h-2.447v2.63h2.448zm.963 52.854h-4.384v4.765h4.384zM92.074.12H74.748v18.834h17.326zm-.161 54.111H74.909v18.485h17.004zm0 26.906H74.909v18.54h17.004zm.109 26.849H74.8v18.722h17.222zm.052 26.913H74.748v18.835h17.326zm.058 26.912H74.696v18.953h17.436zm-.272 54.168H74.939v18.422H91.86zm0 26.963H74.939v18.428H91.86zm-1.047 28.14H76.015v16.086h14.798zm1.1 25.741H74.909v18.491h17.004zm.219 26.731H74.696v18.953h17.436zm.132 26.793H74.558v19.248h17.706zm0 26.968H74.558v19.186h17.706zm.133 26.793h-18v19.536h18zm.167 80.687h-18.3v19.887h18.3zm0 26.962h-18.3v19.862h18.3zm0 26.944h-18.3v19.887h18.3zm.046 26.906H74.206v19.981H92.61zm-.398 27.375H74.615v19.129h17.597zm.352 26.593h-18.3v19.887h18.3zm-.3 27.256H74.558v19.242h17.706zm0 53.938H74.558v19.248h17.706zm-.242 27.2H74.8v18.722h17.222zm-6.969 34.513h-3.307v3.601h3.307zm-.081 27.081H81.85v3.369h3.122zm.536 26.356h-4.194v4.565h4.194zm-.778 27.82h-2.638v2.843h2.638zm1.21 25.622h-5.058v5.498h5.058zM115.563 1.578h-14.688v15.973h14.688zm1.509 52.239H99.366v19.248h17.706zm-.409 27.383H99.741v18.422h16.922zm.167 53.761H99.608v18.716h17.222zm-.27 81.139H99.85v18.189h16.71zm.27 53.635H99.608v18.716h17.222zm-.541 27.558h-16.168v17.551h16.168zm.616 53.229H99.499v18.898h17.406zm.167 26.793H99.366v19.186h17.706zm.185 80.624H99.153v19.687h18.104zm-.052 26.994h-18v19.573h18zm.052 26.919H99.153v19.686h18.104zm.138 53.755h-18.38v19.981h18.38zm-.19 54.113h-18v19.567h18zm-2.287 137.265h-13.427v14.596h13.427zm2.287 24.483h-18v19.567h18zm-8.018 35.684h-1.964v2.104h1.964zm1.319 25.535h-4.574v4.971h4.574zm1.503 25.303h-7.586v8.247h7.586zM141.258.583h-16.519v17.964h16.519zm0 26.911h-16.519V45.51h16.519zm.755 26.211h-18v19.542h18zm-1.97 29.073h-14.095V98.1h14.095zm1.561 25.208h-17.217v18.722h17.217zm.11 26.857h-17.407v18.954h17.407zm-3.41 30.713h-10.605v11.521h10.605zm.967 25.847h-12.539v13.632h12.539zm2.201 51.539h-16.923v18.428h16.923zm.19 26.737h-17.326v18.834h17.326zm0 26.968h-17.326v18.841h17.326zm.052 26.907h-17.407v18.953h17.407zm-.242 27.207h-16.923v18.428h16.923zm.242 26.729h-17.407v18.891h17.407zm.138 26.738h-17.706v19.241h17.706zm.161 26.798h-18v19.568h18zm0 26.976h-18v19.567h18zm0 53.906h-18v19.568h18zm.133 26.793h-18.294v19.887h18.294zm0 53.905h-18.294v19.887h18.294zm-.133 27.114h-18v19.567h18zm.133 26.817h-18.294v19.862h18.294zm-.294 27.264h-17.706v19.242h17.706zm0 26.968h-17.706v19.248h17.706zm-.248 27.2h-17.217v18.722h17.217zm.11 26.855h-17.407v18.923h17.407zm-6.861 61.364h-3.715v4.038h3.715zm.968 52.854h-5.65v6.143h5.65zM165.877.758h-16.145v17.551h16.145zm0 26.974h-16.145v17.545h16.145zm.622 26.262h-17.407v18.96h17.407zm.109 26.855h-17.602v19.129h17.602zm-3.502 30.769h-10.598v11.521h10.598zm1.694 25.097h-14.02v15.209h14.02zm-3.733 31.057h-6.514v7.076h6.514zm4.412 22.116h-15.367v16.731h15.367zm.939 25.973h-17.222v18.716h17.222zm0 26.907h-17.222v18.722h17.222zm.19 53.704h-17.602v19.185h17.602zm.052 26.913h-17.706v19.248h17.706zm-.351 54.287h-17.033v18.484h17.033zm.299 26.611h-17.602v19.123h17.602zm.133 26.807h-17.897v19.455h17.897zm.213 26.736h-18.3v19.887h18.3zm-.161 27.112h-18v19.574h18zm0 53.931h-18v19.568h18zm0 26.944h-18v19.568h18zm0 26.962h-18v19.568h18zm-.133 54.056h-17.706v19.242h17.706zm-6.566 34.107h-4.574v4.972h4.574zm4.412 22.141h-13.427v14.596h13.427zm0 26.969h-13.427v14.596h13.427zm-4.09 31.383h-5.247v5.704h5.247zm-.432 27.438h-4.383v4.771h4.383zm-.345 27.319h-3.687v4.038h3.687zm6.238 20.206h-16.145v17.551h16.145zM191.25.12h-17.298v18.834h17.298zm0 26.968h-17.298v18.835h17.298zm-.588 27.607h-16.145v17.551h16.145zm-1.054 28.139h-14.02v15.21h14.02zm.732 26.148h-15.472v16.788h15.472zm-2.535 29.724h-10.408v11.29h10.408zm3.496 23.105h-17.406v18.953h17.406zm-.103 54.05h-17.223v18.716h17.223zm0 26.907h-17.223v18.722h17.223zm.207 80.673h-17.62v19.129h17.62zm.035 26.906h-17.706v19.248h17.706zm-.035 27.025h-17.62v19.129h17.62zm-.345 27.263h-16.923v18.428h16.923zm.541 80.303h-18v19.574h18zm-.161 27.114h-17.706V531.3h17.706zm-.248 27.231h-17.217v18.722h17.217zm.409 26.53h-18v19.568h18zm-.196 27.169h-17.62v19.129h17.62zm.035 26.913h-17.706v19.248h17.706zm-2.477 29.654h-12.724v13.838h12.724zm-1.348 28.433h-10.034v10.883h10.034zm-1.67 55.722h-6.699v7.282h6.699zm-1.072 28.108H180.3v4.972h4.573zm-.299 27.257h-3.98v4.365h3.98zm.299 26.65H180.3v4.971h4.573zm1.429 25.415H178.9v8.046h7.402zm-1.273 28.345h-4.867v5.298h4.867zM216.19 0h-17.596v19.13h17.596zm0 26.912h-17.596v19.185h17.596zm-3.387 57.619h-10.817v11.76h10.817zm-2.586 29.774h-5.65v6.142h5.65zm3.07 23.636h-11.785v12.812h11.785zm-1.803 28.898h-8.179v8.891h8.179zm4.574 21.991h-17.326v18.841h17.326zm0 26.975h-17.326v18.834h17.326zm0 26.963h-17.326v18.778h17.326zM216 269.735h-17.216v18.716H216zm0 26.969h-17.216v18.722H216zm.11 26.85h-17.436v18.953h17.436zm0 80.849h-17.436v18.954h17.436zm-.11 27.069h-17.216v18.722H216zm.11 26.849h-17.436v18.923h17.436zm.242 26.674h-17.92v19.455h17.92zm-.242 27.232h-17.436v18.922h17.436zm-.052 53.968h-17.326v18.81h17.326zm0 26.937h-17.326v18.841h17.326zm.132 26.819h-17.596v19.129h17.596zm-.967 27.995h-15.662v17.051h15.662zm.293 26.65h-16.249v17.664h16.249zm-2.713 29.918h-10.817v11.728h10.817zm-1.509 28.608h-7.804v8.453h7.804zm3.255 50.362h-14.314v15.535h14.314zm-3.065 30.275h-8.179v8.891h8.179zm3.145 23.518h-14.474v15.767h14.474zm-4.711 32.084h-5.058v5.498h5.058zm26.15-864.039h-7.77v8.485h7.77zm0 26.969h-7.77v8.422h7.77zm2.834 50.837h-13.426v14.564h13.426zm1.02 25.854H224.45v16.788h15.472zm-2.529 29.724h-10.414v11.29h10.414zm-2.396 29.536h-5.622v6.143h5.622zm5.702 20.77h-17.032v18.484h17.032zm.11 80.723h-17.223v18.716h17.223zm-.398 54.344h-16.445v17.902h16.445zm.72 26.155h-17.89v19.48h17.89zm-.294 81.175h-17.303v18.81h17.303zm-.138 54.056h-17.032v18.515h17.032zm.11 26.849h-17.223v18.716h17.223zm-.156 27.113h-16.929v18.428h16.929zm.184 53.705h-17.303v18.841h17.303zm-1.641 28.778h-14.02v15.21h14.02zm-1.504 28.578h-11.007v11.96h11.007zm1.504 25.334h-14.02v15.21h14.02zm-2.477 56.592h-9.066v9.831h9.066zm-1.267 28.347h-6.538v7.075h6.538zm-1.262 28.308h-4.008v4.365h4.008zm1.878 24.896h-7.77v8.478h7.77zm1.999 24.803h-11.756v12.786h11.756zm-3.686 30.975h-4.39v4.765h4.39zm1.797 25.008h-7.99v8.653h7.99zm25.321-890.13h-9.038v9.83h9.038zm0 26.969h-9.038v9.824h9.038zm3.311 50.311h-15.655v17.02h15.655zm-1.209 28.315h-13.236v14.333h13.236zm0 26.906h-13.236v14.389h13.236zm-3.554 30.826h-6.134v6.669h6.134zm2.425 24.338h-10.979v11.935h10.979zm2.742 23.982h-16.439v17.839h16.439zm.38 26.5h-17.223v18.722h17.223zm.052 26.911H248.32v18.834h17.326zm-2.045 29.192h-13.236v14.395h13.236zm2.339 24.45h-17.92v19.424h17.92zm.08 26.85h-18.081v19.655h18.081zm-.023 26.97h-18v19.542h18zm-.161 27.087H248.13v19.241h17.706zm-.138 27.125h-17.407v18.922h17.407zm-.646 27.638h-16.139v17.551h16.139zm.294 26.65h-16.732v18.196h16.732zm0 26.967h-16.732v18.165h16.732zm-.103 53.995h-16.52v17.989h16.52zm-2.667 56.829h-11.192v12.166h11.192zm.195 26.731H251.2v12.605h11.571zm1.204 25.659h-13.991v15.21h13.991zm-.99 28.046H251.01v13.018h11.975zm-1.078 28.14h-9.82v10.676h9.82zm-1.134 28.164h-7.586v8.246h7.586zm-.081 27.057h-7.401v8.046h7.401zm-.455 27.437h-6.509v7.082h6.509zm.835 26.055h-8.179v8.891h8.179zm-2.776 29.955h-2.632v2.861h2.632zm26.83-864.765h-6.699v7.314h6.699zm0 26.968h-6.699v7.257h6.699zm-.19 27.144h-6.324v6.9h6.324zm.645 26.267h-7.586v8.246h7.586zm2.909 23.807h-13.427v14.564h13.427zm1.503 25.328h-16.439v17.839h16.439zm-1.935 29.016h-12.54v13.688h12.54zm1.313 25.566h-15.172V206.5h15.172zm-2.874 30.068h-9.446v10.238h9.446zm2.344 24.389h-14.1v15.385h14.1zm1.452 25.39H273.26v18.485h17.033zm-.841 27.845H274.09v16.731h15.362zm1.325 25.567h-18v19.536h18zm-.542 27.495h-16.923v18.428h16.923zm.219 26.793h-17.326v18.778h17.326zm-2.799 29.885h-11.756v12.812h11.756zm.213 26.781h-12.16v13.218h12.16zm2.045 24.715h-16.249v17.663h16.249zm.132 80.73h-16.543v17.964h16.543zm-.19 27.169h-16.14v17.545h16.14zm-.403 54.318H274.09v16.7h15.362zm-1.049 55.077h-13.236v14.39h13.236zm-1.019 28.078h-11.192v12.166h11.192zm-.703 27.701h-9.821v10.676h9.821zm-.72 27.725h-8.369v9.098h8.369zm-1.106 28.197h-6.134v6.643h6.134zm1.106 25.741h-8.369v9.098h8.369zm-1.566 28.634h-5.242v5.704h5.242zM307.699 8.309h-2.234v2.454h2.234zm0 26.968h-2.234v2.461h2.234zm.104 26.85h-2.448v2.636h2.448zm.19 26.73h-2.822v3.1h2.822zm-.19 27.202h-2.448v2.636h2.448zm6.515 19.892h-15.472v16.787h15.472zm-.409 27.375h-14.688v15.967h14.688zM311.68 192.7h-10.196v11.114h10.196zm-.191 27.143h-9.82v10.701h9.82zm-2.177 29.361h-5.46v5.911h5.46zm3.79 22.817h-13.046v14.158h13.046zm.081 26.85h-13.236v14.395h13.236zm1.999 24.802h-17.223v18.722h17.223zm-.38 81.256h-16.439v17.902h16.439zm-.542 27.538h-15.362v16.699h15.362zm.138 53.756h-15.661v17.025h15.661zm.058 26.912h-15.771v17.113h15.771zm.104 26.849h-15.956v17.351h15.956zm-.594 27.582h-14.768v16.061h14.768zm.352 26.587h-15.472v16.819h15.472zm-.352 27.32h-14.768v16.086h14.768zm-.916 27.964h-12.936v14.069h12.936zm-.593 27.582h-11.756v12.811h11.756zm.593 26.323h-12.936v14.07h12.936zm-4.492 58.79h-3.98v4.327h3.98zm2.338 24.42h-8.663v9.392h8.663zm-1.261 28.321H303.5v6.669h6.135zm-1.319 28.397h-3.496v3.8h3.496zm1.29 25.54h-5.57v6.054h5.57zm23.628-834.296h-3.715v3.976h3.715zm-.461 27.438h-2.823v3.037h2.823zm-.185 27.144h-2.419v2.63h2.419zm.001 26.963h-2.42v2.636h2.42zm.109 26.855h-2.638v2.868h2.638zm4.861 21.646h-12.372v13.456h12.372zm-.506 27.495h-11.382v12.404h11.382zm-4.465 31.821h-2.419v2.636h2.419zm1.855 24.978h-6.134v6.612h6.134zm-.242 27.199h-5.65v6.142h5.65zm4.896 21.591h-15.471v16.849h15.471zm.242 26.737h-15.955v17.313h15.955zm-4.896 32.284h-6.134v6.669h6.134zm4.412 22.115h-14.959v16.262h14.959zm-2.551 29.718h-9.85v10.701h9.85zm.484 26.455H325.97v11.728h10.818zm1.825 24.945h-14.475v15.767h14.475zm.104 26.857h-14.688v15.973h14.688zm.058 26.906h-14.798v16.061h14.798zm-1.02 135.888h-12.753v13.838h12.753zm-.893 27.908h-10.978v11.935h10.978zm1.429 52.384h-13.83v15.009h13.83zm-2.396 29.542h-9.038v9.824h9.038zm-2.955 30.18h-3.122v3.369h3.122zm1.261 52.536h-5.65v6.142h5.65zm-.835 27.844h-3.98v4.327h3.98zm24.647-835.429h-3.686v3.976h3.686zm-.726 27.726h-2.235v2.46h2.235zm-.431 27.444h-1.372v1.459h1.372zm.431 26.493h-2.235v2.398h2.235zm.536 26.386h-3.306v3.57h3.306zm5.945 47.444h-15.172V206.5h15.172zm-2.287 29.423h-10.627v11.521h10.627zm-1.613 28.722h-7.396v8.015h7.396zm2.77 23.925h-12.937v14.039h12.937zm-2.874 30.068h-7.182v7.839h7.182zm-.432 54.401h-6.324v6.844h6.324zm3.548 23.112h-13.426v14.565h13.426zm.3 26.617h-14.02v15.21h14.02zm-.115 27.037h-13.801v15.003h13.801zm.167 26.793h-14.124v15.329h14.124zm.08 53.819h-14.284v15.535h14.284zm.11 26.849h-14.504v15.736h14.504zm.103 26.856h-14.688v15.967h14.688zm-.535 27.519h-13.64v14.803h13.64zm-1.025 28.078H350.37v12.573h11.595zm.673 53.178h-12.937v14.039h12.937zm-1.561 28.635h-9.82v10.676h9.82zm-1.935 29.072h-5.944v6.462h5.944zm-1.751 28.872h-2.448v2.63h2.448zm0 26.938h-2.448v2.661h2.448zm3.686 22.93h-9.82v10.701h9.82zm.588 26.323h-11.002v11.966h11.002zm-2.039 29.191h-6.918v7.52h6.918zM382.712 7.664h-3.496v3.8h3.496zm0 26.969h-3.496v3.8h3.496zm-.19 27.143H379.4v3.394h3.122zm-.426 27.439h-2.235v2.398h2.235zm.184 26.73h-2.638v2.868h2.638zm.351 26.618h-3.312v3.57h3.312zm-.109 27.025H379.4v3.394h3.122zm.299 26.675h-3.715v3.982h3.715zm.669 26.211h-5.058v5.497h5.058zm-.242 27.199h-4.574v4.972h4.574zm2.454 24.339h-9.447v10.231h9.447zm.27 26.612h-10.011v10.883h10.011zm1.475 25.39h-12.943v14.038h12.943zm.674 26.205h-14.314v15.56h14.314zm.345 26.561h-14.987v16.262h14.987zm-.104 27.026h-14.797v16.086h14.797zm-.241 27.243h-14.314v15.529h14.314zm-.11 27.056h-14.094v15.329h14.094zm-.242 27.232h-13.611v14.802h13.611zm-.08 27.057h-13.427v14.595h13.427zm-.213 27.174h-13.024v14.158h13.024zm0 26.938h-13.024v14.182h13.024zm.103 26.849h-13.236v14.39h13.236zm-.103 27.087h-13.024v14.151h13.024zm-.323 27.313h-12.35v13.425h12.35zm0 26.944h-12.35v13.456h12.35zm-2.206 29.335h-7.966v8.685h7.966zm-1.803 28.929h-4.36v4.771h4.36zm2.154 24.627h-8.669v9.417h8.669zm-3.369 30.594h-1.936v2.135h1.936zm-.426 27.437h-1.078v1.171h1.078zm.127 53.757h-1.343v1.49h1.343zM406.956 8.247h-2.396v2.636h2.396zm0 26.911h-2.396v2.693h2.396zm.213 53.699h-2.823v3.1h2.823zm2.045 24.747h-6.918v7.545h6.918zm-.645 27.669h-5.622v6.143h5.622zm1.722 25.096h-9.043v9.825h9.043zm.484 26.443h-10.011v10.883h10.011zm.19 26.731h-10.414v11.29h10.414zm.184 26.736h-10.788v11.76h10.788zm-.777 27.789h-9.228v10.063h9.228zm1.37 25.504h-11.975v12.987h11.975zm-3.012 30.243h-5.944v6.437h5.944zm3.663 49.961h-13.242v14.333h13.242zm0 26.907h-13.242v14.389h13.242zm-.276 27.218h-12.724v13.832h12.724zm0 26.937h-12.724v13.863h12.724zm-.104 27.081h-12.516v13.631h12.516zm-.374 27.383h-11.762v12.786h11.762zm0 26.936h-11.762v12.818h11.762zm.829 26.061h-13.426v14.596h13.426zm-.242 27.231h-12.942v14.07h12.942zm-.374 27.376h-12.165v13.218h12.165zm-2.748 29.924h-6.698v7.282h6.698zm1.377 25.479h-9.446v10.237h9.446zm-.622 27.637h-8.179v8.892h8.179zm-1.29 28.316h-5.622v6.142h5.622zm-.536 27.55h-4.551v4.972h4.551zm-.697 54.696h-3.122v3.394h3.122zm-.38 27.318h-2.396v2.661h2.396zm1.613 25.216h-5.622v6.143h5.622zM431.516 8.484h-1.935v2.104h1.935zm.139 53.756h-2.206v2.46h2.206zm.535 26.386h-3.283v3.57h3.283zm-.754 27.789h-1.774v1.929h1.774zm4.625 21.94H425.06v11.935h11.001zm-2.984 30.181h-5.057v5.498h5.057zm.945 25.973h-6.918v7.489h6.918zm2.039 24.746H425.06v11.934h11.001zm.38 53.468h-11.785v12.811h11.785zm-.858 27.901h-10.034v10.883h10.034zm1.342 25.446h-12.753v13.863h12.753zm.651 26.324h-14.02v15.209h14.02zm-.864 27.845h-12.321v13.4h12.321zm-.086 27.032h-12.16v13.218h12.16zm0 26.949h-12.16v13.218h12.16zm0 26.937h-12.16v13.218h12.16zm0 26.969h-12.16v13.224h12.16zm.196 26.737h-12.54v13.657h12.54zm-.271 27.288h-11.998v12.993h11.998zm-1.561 55.602h-8.882v9.624h8.882zm-1.913 29.017h-5.057v5.497h5.057zm0 26.937h-5.057v5.498h5.057zm-.673 27.701h-3.71v4.039h3.71zm0 26.969h-3.71v4.007h3.71zm.241 53.636h-4.17v4.564h4.17zm-1.421 55.459h-1.349v1.459h1.349zm2.931 23.781h-7.183v7.808h7.183zm-2.639 29.805h-1.935v2.103h1.935zm24.51-862.223h-1.343V10.3h1.343zm0 26.912h-1.343v1.522h1.343zm.731 26.205h-2.828v3.037h2.828zm.132 26.793h-3.093v3.394h3.093zm-.753 27.782h-1.562v1.697h1.562zm.431 26.506h-2.42v2.63h2.42zm1.613 25.209h-5.651v6.143h5.651zm-.214 27.144h-5.247v5.735h5.247zm1.377 25.503h-7.995v8.659h7.995zm.075 26.849h-8.15v8.835h8.15zm-1.025 28.027h-6.106v6.668h6.106zm.328 26.674h-6.728v7.251h6.728zm1.048 25.798h-8.853v9.593h8.853zm1.965 24.802h-12.753v13.863h12.753zm.138 26.793H448.82v14.151h13.052zm-.945 27.958h-11.163v12.166h11.163zm-.086 27.044h-11.002v11.96h11.002zm.973 52.854h-12.943v14.076h12.943zm-.403 27.375h-12.165v13.219h12.165zm.323 26.643h-12.753v13.869h12.753zm-.404 27.382h-11.969v13.018h11.969zm-2.287 29.455h-7.372v8.046h7.372zm.375 53.498h-8.15v8.86h8.15zm-1.452 55.483h-5.247v5.698h5.247zm-.754 27.821h-3.715v4.007h3.715zm2.131 24.627h-7.995v8.653h7.995zm-1.699 28.778h-4.573v4.972h4.573zm.749 26.123h-6.106v6.669h6.106zm-2.257 29.448h-1.562v1.697h1.562zm.54 26.355h-2.638v2.861h2.638zM480.679 8.948h-1.078v1.171h1.078zm0 26.975h-1.078v1.17h1.078zm.35 53.523h-1.751v1.935h1.751zm.075 26.85h-1.935v2.166h1.935zm2.477 24.276h-6.889v7.489h6.889zm-.374 27.376h-6.14v6.669h6.14zm-.646 27.676h-4.844v5.26h4.844zm1.395 52.408h-7.586v8.253h7.586zm-.859 27.853h-5.921v6.43h5.921zm.323 26.668h-6.538v7.075h6.538zm.426 26.448h-7.396v8.071h7.396zm1.515 25.321h-10.414v11.29h10.414zm-.386 27.383h-9.631v10.469h9.631zm1.244 25.566h-12.165v13.218h12.165zm-.109 27.038h-11.946v13.017h11.946zm-1.884 29.015h-8.179v8.892h8.179zm.542 53.349h-9.257v10.031h9.257zm1.186 25.679h-11.6v12.579h11.6zm-3.289 30.512h-5.057v5.498h5.057zm-1.29 28.365h-2.448v2.629h2.448zm2.206 24.513h-6.889v7.52h6.889zm-1.584 55.666h-3.692v4.039h3.692zm-.299 27.287h-3.116v3.394h3.116zm1.722 25.097h-6.538v7.082h6.538zm.703 26.18h-7.967v8.653h7.967zm-.087 27.049h-7.77v8.454h7.77zm-1.152 28.228h-5.46v5.905h5.46zm-.323 27.263h-4.844v5.291h4.844zM505.487 8.948h-1.078v1.171h1.078zm0 26.975h-1.078v1.17h1.078zm.668 26.204h-2.448v2.636h2.448zm-.242 27.263h-1.936v2.105h1.936zm-.103 27.025h-1.723v1.929h1.723zm-.19 27.2h-1.372v1.465h1.372zm.19 26.731h-1.723v1.872h1.723zm4.353 22.234h-10.437v11.346h10.437zm-3.467 30.707H503.2v3.801h3.496zm.236 26.675h-3.98v4.389h3.98zm.732 26.211h-5.461v5.911h5.461zm.455 26.436h-6.348v6.901h6.348zm1.348 25.509h-9.038v9.825h9.038zm0 26.969h-9.038v9.824h9.038zm.967 25.86h-10.978v11.935h10.978zm-2.045 29.185H501.5v7.489h6.889zm2.633 24.088h-12.159v13.218h12.159zm.195 26.737h-12.568v13.625h12.568zm-2.828 30.006H501.5v7.52h6.889zm-.483 27.494h-5.922v6.462h5.922zm.91 25.948h-7.748v8.485h7.748zm-1.774 28.928h-4.194v4.533h4.194zm0 26.963h-4.194v4.533h4.194zm1.077 25.766h-6.348v6.876h6.348zm-.755 27.764h-4.844v5.298h4.844zm-1.209 28.282h-2.448v2.636h2.448zm.887 52.974h-4.194v4.533h4.194zm3.283 23.337h-10.789v11.759h10.789zm-.749 27.814h-9.256v10.038h9.256zm-2.534 56.654h-4.194v4.533h4.194zm-.887 27.908h-2.448v2.63h2.448zM530.18 9.066h-.888v.94h.888zm0 26.969h-.888v.94h.888zm0 26.969h-.888v.94h.888zm.242 26.68h-1.371v1.459h1.371zm0 26.962h-1.371v1.466h1.371zm.081 26.85h-1.562v1.697h1.562zm-.081 27.031h-1.371v1.522h1.371zm.195 26.793h-1.751v1.873h1.751zm.778 26.086h-3.312v3.569h3.312zm.616 26.267h-4.573v4.978h4.573zm0 26.97h-4.573v4.971h4.573zm-.184 27.143h-4.17v4.559h4.17zm0 26.969h-4.17v4.558h4.17zm1.532 25.327h-7.212v7.84h7.212zm.991 25.855h-9.228v10.006h9.228zm-.726 54.657h-7.776v8.453h7.776zm-.426 27.431h-6.918v7.521h6.918zm-.835 27.846h-5.248v5.704h5.248zm-1.216 28.282h-2.822v3.075h2.822zm2.051 24.746h-6.918v7.489h6.918zm-.294 27.257h-6.324v6.875h6.324zm-.086 27.063h-6.135v6.668h6.135zm.086 26.843h-6.324v6.876h6.324zm-.732 27.764h-4.867v5.298h4.867zm-.345 27.319h-4.17v4.564h4.17zm-1.106 28.19h-1.935v2.104h1.935zm1.019 52.797h-3.98v4.327h3.98zm.185 53.705h-4.383v4.74h4.383zm-1.308 28.371h-1.751v1.897h1.751zm-.327 27.319h-1.078v1.171h1.078zM554.988 9.066h-.887v.94h.887zm0 26.969h-.887v.94h.887zm0 53.937h-.887v.939h.887zm.76 26.087h-2.425v2.636h2.425zm-.437 27.437h-1.561v1.697h1.561zm2.286 24.452h-6.134v6.669h6.134zm-2.177 29.372h-1.774v1.873h1.774zm.535 26.318h-2.851v3.099h2.851zm-.207 27.2h-2.425v2.636h2.425zm.53 26.387h-3.496v3.8h3.496zm.351 53.53h-4.17v4.558h4.17zm.352 26.555h-4.896v5.322h4.896zm0 26.968h-4.896v5.323h4.896zm.08 26.85h-5.057v5.498h5.057zm0 53.893h-5.057v5.498h5.057zm.19 26.762h-5.437v5.911h5.437zm.104 26.85h-5.65v6.111h5.65zm.323 26.586h-6.296v6.875h6.296zm.219 53.706h-6.728v7.282h6.728zm-1.509 28.577h-3.71v4.039h3.71zm1.209 25.647h-6.134v6.638h6.134zm.081 26.85h-6.296v6.875h6.296zm-1.158 55.164h-3.98v4.327h3.98zm-1.019 28.083h-1.936v2.104h1.936zm2.177 51.533h-6.296v6.875h6.296zm-1.29 28.371h-3.71v4.008h3.71zM579.774 9.066h-.894v.94h.894zm0 26.969h-.894v.94h.894zm0 26.969h-.894v.94h.894zm.075 26.85H578.8v1.17h1.049zm-.075 53.993h-.894v.939h.894zm.345 26.618h-1.561v1.697h1.561zm0 26.912h-1.561v1.697h1.561zm.19 26.793h-1.964v2.104h1.964zm.248 26.668h-2.425v2.636h2.425zm0 26.974h-2.425v2.637h2.425zm-.248 27.202h-1.964v2.104h1.964zm1.106 25.741h-4.171v4.558h4.171zm.213 26.729h-4.574v4.972h4.574zm.132 53.763h-4.867v5.266h4.867zm.19 26.718h-5.247v5.704h5.247zm0 53.906h-5.247v5.704h5.247zm.427 26.498h-6.106v6.637h6.106zm.651 53.204h-7.373v8.046h7.373zm-.433 27.439h-6.508v7.082h6.508zm-.299 27.288h-5.944v6.43h5.944zm.196 26.73h-6.325v6.875h6.325zm.213 22.798h-6.722v11.252h6.722zm-.11 31.026h-6.508v7.076h6.508zm.191 26.732h-6.912v7.52h6.912zm-2.126 29.278h-2.638v2.868h2.638zm-.351 27.32h-1.964v2.135h1.964zm2.286 24.482h-6.508v7.082h6.508zm-.431 27.433h-5.651v6.142h5.651zm.541 26.385h-6.728v7.283h6.728zM604.553 9.066h-.864v.94h.864zm0 26.969h-.864v.94h.864zm.104 53.819h-1.078v1.17h1.078zm.161 26.792h-1.371v1.466h1.371zm-.161 54.05h-1.078v1.171h1.078zm.161 26.799h-1.371v1.522h1.371zm.081 26.844h-1.533v1.697h1.533zm.46 26.499h-2.448v2.636h2.448zm.536 26.387h-3.525v3.8h3.525zm.426 53.411h-4.383v4.796h4.383zm0 26.968h-4.383v4.74h4.383zm.219 26.674h-4.839v5.323h4.839zm0 26.969h-4.839v5.266h4.839zm.219 26.718h-5.277v5.704h5.277zm0 26.969h-5.277v5.698h5.277zm-.116 27.055h-5.057v5.498h5.057zm.3 26.644h-5.622v6.111h5.622zm.783 26.091h-7.211v7.839h7.211zm-.322 27.351h-6.538v7.076h6.538zm-.219 27.144h-6.134v6.668h6.134zm.219 53.699h-6.538v7.107h6.538zm0 26.969h-6.538v7.082h6.538zm.161 53.699h-6.889v7.52h6.889zm-2.666 56.829h-1.533v1.666h1.533zm.189 24.627h-1.935v2.104h1.935zm.271 28.784h-2.448v2.661h2.448zm.426 26.499h-3.306v3.594h3.306zM629.362 9.066h-.865v.94h.865zm0 26.969h-.865v.94h.865zm0 26.969h-.865v.94h.865zm0 26.968h-.865v.939h.865zm.103 26.849h-1.077v1.115h1.077zm.242 26.675h-1.561v1.697h1.561zm-.109 27.031h-1.372v1.522h1.372zm.454 26.499h-2.258v2.461h2.258zm.438 53.467h-3.122v3.338h3.122zm-.271 27.201h-2.609v2.868h2.609zm.807 26.092h-4.194v4.559h4.194zm.322 80.492h-4.844v5.323h4.844zm0 26.969h-4.844v5.266h4.844zm.219 26.718h-5.276v5.704h5.276zm.184 26.736h-5.65v6.143h5.65zm-.109 27.082h-5.461v5.911h5.461zm0 26.943h-5.461v5.936h5.461zm.455 26.493h-6.347v6.875h6.347zm.167 26.737h-6.699v7.282h6.699zm1.475 52.327h-9.631v10.47h9.631zm-1.366 82.333h-6.889v7.52h6.889zm1.665 52.122h-10.224v11.115h10.224zm-1.019 55.021h-8.18v8.891h8.18zm-.484 27.494h-7.212v7.808h7.212zm-.438 27.433h-6.347v6.875h6.347zm22.067-859.62h-.888v.94h.888zm0 26.969h-.888v.94h.888zm0 26.969h-.888v.94h.888zm.11 26.85h-1.078v1.17h1.078zm-.11 27.031h-.888v.995h.888zm0 26.962h-.888v.939h.888zm0 26.968h-.888v.94h.888zm.437 26.505h-1.751v1.873h1.751zm-.114 27.019h-1.562v1.697h1.562zm0 26.969h-1.562v1.703h1.562zm.437 26.504h-2.425v2.637h2.425zm.8 26.086h-3.98v4.327h3.98zm.087 26.857h-4.17v4.558h4.17zm.184 26.729h-4.573v4.972h4.573zm.351 80.481h-5.247v5.704h5.247zm.346 26.587h-5.944v6.462h5.944zm-.155 81.018h-5.651v6.143h5.651zm.529 53.355h-6.698v7.282h6.698zm.11 26.817h-6.918v7.52h6.918zm-.11 54.026h-6.698v7.313h6.698zm.11 26.848h-6.918v7.52h6.918zm.162 26.794h-7.212v7.84h7.212zm-1.959 29.072h-3.312v3.601h3.312zm-.248 27.232h-2.822v3.074h2.822zm3.019 50.631h-8.854v9.624h8.854zm.184 26.762h-9.228v10.031h9.228zm-.507 27.52h-8.179v8.891h8.179zM678.863 9.186h-.698v.757h.698zm0 26.968h-.698v.702h.698zm.109 26.85h-.887v.94h.887zm0 53.881h-.887v.995h.887zm0 26.962h-.887v.939h.887zm0 53.936h-.887v.939h.887zm.968 25.855h-2.852v3.099h2.852zm.432 53.473h-3.71v4.033h3.71zm0 26.963h-3.71v3.976h3.71zm.322 26.562h-4.36v4.796h4.36zm.109 26.848h-4.573v4.972h4.573zm.162 53.763h-4.896v5.266h4.896zm.535 80.279h-5.944v6.431h5.944zm.081 26.843h-6.134v6.637h6.134zm.19 80.643h-6.509v7.082h6.509zm.219 26.73h-6.918v7.52h6.918zm.133 26.825h-7.183v7.809h7.183zm-.248 27.201h-6.722v7.313h6.722zm.248 26.705h-7.183v7.808h7.183zm-1.965 56.009h-3.283v3.601h3.283zm2.984 23.751h-9.227v10.038h9.227zm-.726 27.732h-7.804v8.478h7.804zm-1.613 28.722h-4.573v4.971h4.573zm2.339 51.357h-9.227v10.062h9.227zM703.665 9.186h-.697v.757h.697zm0 26.968h-.697v.702h.697zm0 26.968h-.697v.701h.697zm.087 26.85h-.888v.939h.888zm0 26.913h-.888v.995h.888zm.541 53.347h-1.964v2.104h1.964zm-.46 27.439h-1.049v1.171h1.049zm.886 25.967h-2.823v3.099h2.823zm.132 26.855h-3.093v3.338h3.093zm.22 26.732h-3.497v3.8h3.497zm.322 53.53h-4.17v4.558h4.17zm.213 26.729h-4.573v4.972h4.573zm.138 26.794h-4.867v5.323h4.867zm0 26.969h-4.867v5.266h4.867zm.19 26.718h-5.247v5.704h5.247zm.104 26.849h-5.437v5.905h5.437zm.242 26.712h-5.944v6.431h5.944zm.081 26.843h-6.106v6.637h6.106zm.109 26.85h-6.324v6.875h6.324zm0 26.937h-6.324v6.875h6.324zm.432 26.474h-7.183v7.839h7.183zm-.138 57.274h-6.912v4.327h6.912zm0 23.776h-6.912v7.488h6.912zm-.294 54.225h-6.324v6.876h6.324zm-.645 27.645h-5.057v5.497h5.057zm1.181 79.584h-7.373v8.046h7.373zm.38 26.53h-8.15v8.892h8.15zm.265 26.706h-8.663v9.418h8.663zm20.8-885.184h-.675v.757h.675zm0 26.968h-.675v.702h.675zm0 26.968h-.675v.701h.675zm0 53.875h-.675v.758h.675zm.08 26.85h-.858v.939h.858zm0 26.968h-.858v.94h.858zm.887 52.942h-2.609v2.868h2.609zm.351 53.586h-3.306v3.569h3.306zm.859 133.785h-5.058v5.498h5.058zm.109 26.837h-5.276v5.704h5.276zm.19 26.736h-5.622v6.143h5.622zm.248 80.606h-6.14v6.668h6.14zm.207 26.768h-6.538v7.076h6.538zm-.103 53.987h-6.325v6.876h6.325zm-1.752 28.873h-2.822v3.074h2.822zm2.016 24.745h-6.888v7.488h6.888zm.167 26.793h-7.211v7.808h7.211zm.375 80.435h-7.966v8.691h7.966zm.103 53.813h-8.179v8.891h8.179zm.243 53.649h-8.635v9.418h8.635zM753.236 9.186h-.674v.757h.674zm0 26.968h-.674v.702h.674zm0 26.968h-.674v.701h.674zm0 26.913h-.674v.758h.674zm.109 26.85h-.864v.995h.864zm.237 26.73h-1.372v1.465h1.372zm.454 53.411h-2.258v2.461h2.258zm.271 53.58h-2.794v3.106h2.794zm.167 26.793h-3.122v3.394h3.122zm.265 26.675h-3.687v3.976h3.687zm0 26.968h-3.687v3.982h3.687zm.265 26.681h-4.193v4.558h4.193zm.87 133.803h-5.922v6.431h5.922zm0 26.931h-5.922v6.462h5.922zm.288 53.618h-6.509v7.076h6.509zm.086 53.787h-6.699v7.314h6.699zm0 26.968h-6.699v7.282h6.699zm.749 53.116h-8.179v8.892h8.179zm-.213 27.176h-7.748v8.453h7.748zm.213 26.731h-8.179v8.891h8.179zm.432 53.435h-9.038v9.825h9.038zm-.19 27.176h-8.663v9.417h8.663zm20.8-831.278h-.675v.757h.675zm0 26.968h-.675v.702h.675zm0 26.968h-.675v.701h.675zm0 26.913h-.675v.758h.675zm.219 53.699h-1.078v1.171h1.078zm-.219 27.2h-.675v.701h.675zm0 26.969h-.675v.708h.675zm.863 25.973h-2.425v2.636h2.425zm.11 26.85h-2.638v2.867h2.638zm.103 26.848h-2.822v3.043h2.822zm.593 80.262h-3.98v4.327h3.98zm.185 26.736h-4.384v4.74h4.384zm.426 80.362h-5.242v5.704h5.242zm.196 26.73h-5.65v6.143h5.65zm.161 26.793h-5.944v6.462h5.944zm.11 26.85h-6.135v6.668h6.135zm.08 26.849h-6.324v6.875h6.324zm0 26.969h-6.324V606h6.324zm.075 26.855h-6.509v7.076h6.509zm.38 26.587h-7.211v7.809h7.211zm.081 26.849h-7.396v8.015h7.396zm.081 26.851h-7.586v8.246h7.586zm.944 52.884h-9.446v10.263h9.446zm-.196 27.169h-9.037v9.856h9.037zm-.426 54.401h-8.179v8.891h8.179zm0 26.943h-8.179v8.892h8.179zM802.737 9.305h-.484v.526h.484zm0 26.968h-.484v.526h.484zm.3 26.612h-1.078v1.17h1.078zm-.086 54h-.888v.995h.888zm.086 26.849h-1.078v1.171h1.078zm-.196 27.2h-.697v.701h.697zm.864 52.942h-2.42v2.636h2.42zm.109 53.818h-2.638v2.868h2.638zm.11 26.85h-2.852v3.037h2.852zm.426 53.41h-3.71v4.039h3.71zm.432 53.405h-4.574v4.972h4.574zm.161 26.813h-4.896v5.291h4.896zm.161 26.762h-5.218v5.704h5.218zm.219 53.699h-5.65v6.111h5.65zm.236 53.642h-6.134v6.669h6.134zm.542 80.292h-7.183v7.809h7.183zm.08 53.787h-7.372v8.047h7.372zm.484 26.442h-8.34v9.098h8.34zm-.08 54.018h-8.179v8.867h8.179zm-.19 108.019h-7.799v8.453h7.799z" opacity=".34"/></svg>