<svg xmlns="http://www.w3.org/2000/svg" width="38" height="38"><g clip-path="url(#a)"><g clip-path="url(#b)"><mask id="c" width="37" height="36" x="0" y="1" maskUnits="userSpaceOnUse" style="mask-type:luminance"><path d="M36.263 1.85H.76v34.844h35.503z"/></mask><g mask="url(#c)"><path d="M24.854 24.443c-1.106.981-2.486 2.203-4.994 2.203h-1.496c-1.814 0-3.463-.658-4.642-1.853-1.153-1.167-1.788-2.764-1.788-4.498v-2.05c0-1.734.635-3.331 1.788-4.498 1.18-1.195 2.828-1.853 4.642-1.853h1.496c2.508 0 3.887 1.221 4.994 2.203 1.148 1.018 2.14 1.896 4.782 1.896q.605 0 1.203-.096-.001-.011-.009-.023a9 9 0 0 0-.556-1.141l-1.766-3.06a9.07 9.07 0 0 0-7.859-4.538h-3.534a9.07 9.07 0 0 0-7.858 4.538l-1.766 3.06a9.07 9.07 0 0 0 0 9.074l1.766 3.06a9.08 9.08 0 0 0 7.858 4.537h3.534a9.07 9.07 0 0 0 7.859-4.537l1.766-3.06q.319-.55.556-1.142c0-.007.006-.014.009-.022a7.5 7.5 0 0 0-1.203-.097c-2.642 0-3.634.88-4.782 1.897"/><path d="M19.86 13.752h-1.496c-2.76 0-4.573 1.97-4.573 4.493v2.05c0 2.523 1.814 4.494 4.573 4.494h1.496c4.02 0 3.707-4.098 9.776-4.098q.864 0 1.715.157a9.1 9.1 0 0 0 0-3.152 9.3 9.3 0 0 1-1.715.157c-6.07 0-5.755-4.102-9.776-4.102"/><path d="M34.838 22.344a8.5 8.5 0 0 0-3.488-1.496q-.001.015-.005.03a9 9 0 0 1-.507 1.767 6.65 6.65 0 0 1 2.884 1.186q-.002.015-.009.028a15.5 15.5 0 0 1-2.165 4.395 15.7 15.7 0 0 1-3.382 3.479A15.565 15.565 0 0 1 7.828 8.263a15.573 15.573 0 0 1 25.896 6.448 6.65 6.65 0 0 1-2.886 1.185 9 9 0 0 1 .512 1.797 8.45 8.45 0 0 0 3.488-1.496c.994-.736.802-1.567.65-2.059-2.191-7.119-8.818-12.29-16.654-12.29-9.622 0-17.422 7.8-17.422 17.421 0 9.622 7.8 17.423 17.422 17.423 7.836 0 14.463-5.172 16.651-12.289.155-.491.347-1.323-.647-2.059"/><path d="M30.839 15.894q-.597.096-1.204.096c-2.642 0-3.634-.879-4.781-1.897-1.106-.981-2.486-2.203-4.994-2.203h-1.496c-1.814 0-3.463.658-4.642 1.853-1.153 1.167-1.788 2.765-1.788 4.499v2.049c0 1.734.635 3.331 1.788 4.498 1.18 1.195 2.828 1.853 4.642 1.853h1.496c2.508 0 3.887-1.221 4.994-2.203 1.148-1.017 2.14-1.896 4.781-1.896q.606 0 1.204.096c.229-.57.398-1.162.507-1.767q.001-.015.005-.03a9.4 9.4 0 0 0-1.716-.157c-6.07 0-5.754 4.098-9.775 4.098h-1.496c-2.76 0-4.573-1.971-4.573-4.494v-2.047c0-2.523 1.813-4.494 4.573-4.494h1.496c4.02 0 3.707 4.098 9.775 4.098q.866 0 1.716-.157.001-.015-.005-.029a9 9 0 0 0-.507-1.767"/><path d="M30.839 15.894q-.597.096-1.204.096c-2.642 0-3.634-.879-4.781-1.897-1.106-.981-2.486-2.203-4.994-2.203h-1.496c-1.814 0-3.463.658-4.642 1.853-1.153 1.167-1.788 2.765-1.788 4.499v2.049c0 1.734.635 3.331 1.788 4.498 1.18 1.195 2.828 1.853 4.642 1.853h1.496c2.508 0 3.887-1.221 4.994-2.203 1.148-1.017 2.14-1.896 4.781-1.896q.606 0 1.204.096c.229-.57.398-1.162.507-1.767q.001-.015.005-.03a9.4 9.4 0 0 0-1.716-.157c-6.07 0-5.754 4.098-9.775 4.098h-1.496c-2.76 0-4.573-1.971-4.573-4.494v-2.047c0-2.523 1.813-4.494 4.573-4.494h1.496c4.02 0 3.707 4.098 9.775 4.098q.866 0 1.716-.157.001-.015-.005-.029a9 9 0 0 0-.507-1.767"/></g></g></g><defs><clipPath id="a"><path d="M0 .539h37.023v37.023H0z"/></clipPath><clipPath id="b"><path d="M0 1.083h37.023v35.934H0z"/></clipPath></defs></svg>