<svg xmlns="http://www.w3.org/2000/svg" width="38" height="38"><g clip-path="url(#a)"><g clip-path="url(#b)"><g clip-path="url(#c)"><mask id="d" width="37" height="37" x="0" y="1" maskUnits="userSpaceOnUse" style="mask-type:luminance"><path d="M36.908 1.632H.912v35.997h35.996z"/></mask><g mask="url(#d)"><path d="M1.137 22.297c.526 3.832 2.33 7.29 5.035 10.07l6.087-6.087c0-6.463 3.382-12.325 8.943-15.632z"/><path d="M12.334 26.204c-3.156 0-6.237-.827-8.943-2.405-.751-.451-1.503-.977-2.254-1.503.526 3.833 2.33 7.29 5.035 10.07zm0 .001-6.162 6.162c2.78 2.78 6.238 4.509 9.995 5.035l11.648-20.14c-3.156 5.486-9.093 8.943-15.48 8.943"/><path d="M14.74 35.222c-1.579-2.78-2.406-5.786-2.406-8.943l-6.162 6.087c2.78 2.781 6.238 4.51 9.995 5.035-.45-.751-.977-1.427-1.428-2.179M35.255 2.608l-13.978 7.966c-5.561 3.156-12.325 3.156-17.961 0A18.5 18.5 0 0 0 .91 19.667c0 .827.075 1.804.226 2.63.751.527 1.503 1.053 2.254 1.504 2.78 1.578 5.787 2.404 8.943 2.404l23.221-23.22c-.15-.076-.225-.226-.3-.377"/><path d="M3.316 23.798c2.78 1.578 5.787 2.404 8.943 2.404 0-6.463 3.382-12.324 8.943-15.63L1.137 22.218c.751.602 1.428 1.128 2.18 1.579"/><path d="M3.316 10.571A18.5 18.5 0 0 0 .91 19.664c0 .827.075 1.804.226 2.63l20.14-11.723c-5.486 3.307-12.325 3.307-17.961 0"/><path d="M35.556 2.983c-.3-.301-.526-.526-.827-.752a4.8 4.8 0 0 0-2.254-.601H18.873c-6.463 0-12.4 3.457-15.556 8.943 5.56 3.156 12.324 3.156 17.96 0-5.56 3.156-8.942 9.168-8.942 15.63 6.462 0 12.324-3.381 15.63-8.942l7.967-13.978c-.15-.075-.301-.15-.376-.3"/><path d="m21.277 10.572 13.978-7.966c-.225-.075-.3-.3-.526-.45L3.317 10.571c5.636 3.307 12.474 3.307 17.96 0"/><path d="M32.4 1.63H18.873c-6.463 0-12.4 3.457-15.556 8.943l31.412-8.417c-.751-.3-1.503-.526-2.33-.526m-4.434 15.63L35.93 3.282a1.16 1.16 0 0 1-.3-.451L12.408 26.127c0 3.157.826 6.238 2.405 8.943.45.752.977 1.503 1.503 2.255.826.075 1.653.225 2.555.225a17.73 17.73 0 0 0 8.943-2.404c-3.157-5.562-3.157-12.4.15-17.886"/><path d="M12.335 26.205c0 3.156.826 6.237 2.404 8.942.451.752.977 1.503 1.503 2.255l11.649-20.14c-3.232 5.486-9.168 8.943-15.556 8.943m15.63-8.943-11.648 20.14c.826.075 1.653.225 2.63.225 3.156 0 6.237-.826 8.943-2.405-3.232-5.636-3.232-12.474.075-17.96"/><path d="M36.308 3.886c-.301-.526-.602-.977-1.053-1.278l-13.977 7.966c-5.562 3.156-8.943 9.169-8.943 15.631 6.463 0 12.324-3.381 15.63-8.942-3.155 5.56-3.155 12.324 0 17.96 5.487-3.156 8.944-9.093 8.944-15.405V6.14c0-.826-.226-1.578-.602-2.254"/><path d="m35.255 2.608-13.977 7.966c-5.562 3.156-8.943 9.169-8.943 15.631l23.221-23.22c-.15-.076-.225-.301-.3-.377"/><path d="M12.335 26.203c6.463 0 12.324-3.382 15.63-8.943l7.967-13.978c-.075-.075-.226-.225-.3-.451z"/><path d="m35.93 3.283-7.965 13.978c-3.156 5.561-3.156 12.325 0 17.96l8.417-31.337c-.226-.225-.3-.375-.451-.6"/><path d="M27.965 35.221c5.561-3.156 8.943-9.093 8.943-15.556V6.138c0-.826-.226-1.578-.601-2.33z"/></g></g></g></g><defs><clipPath id="a"><path d="M.366.865h37.087v37.087H.366z"/></clipPath><clipPath id="b"><path d="M.366.865h37.087v37.087H.366z"/></clipPath><clipPath id="c"><path d="M.366.865h37.087v37.087H.366z"/></clipPath></defs></svg>