<svg xmlns="http://www.w3.org/2000/svg" width="1728" height="913"><g stroke-opacity=".2" stroke-width="1.2" opacity=".5"><path d="M108.6.199V1077.8" opacity=".4"/><path d="M216.6.199V1077.8" opacity=".6"/><path d="M324.6.199V1077.8M432.6.199V1077.8M540.6.199V1077.8M648.6.199V1077.8M756.6.199V1077.8M864.6.199V1077.8M972.6.199V1077.8M1080.6.199V1077.8M1188.6.199V1077.8M1296.6.199V1077.8M1404.6.199V1077.8"/><path d="M1512.6.199V1077.8" opacity=".6"/><path d="M1620.6.199V1077.8" opacity=".4"/><path d="M1.2 804.799h1725.6m-1725.6-108h1725.6m-1725.6-108h1725.6m-1725.6-108h1725.6m-1725.6-108h1725.6m-1725.6-108h1725.6"/><path d="M1.2 156.799h1725.6" opacity=".6"/></g></svg>