<svg xmlns="http://www.w3.org/2000/svg" width="67" height="29"><g clip-path="url(#a)"><path d="M30.205 22.776a3.7 3.7 0 0 1-1.508-.321l-10.49-4.675a3.73 3.73 0 0 1-1.889-4.917l4.675-10.49A3.73 3.73 0 0 1 25.91.483L36.4 5.16a3.73 3.73 0 0 1 1.889 4.917l-4.675 10.49a3.74 3.74 0 0 1-3.41 2.21m-.635-2.288a1.58 1.58 0 0 0 2.078-.793l4.675-10.49a1.58 1.58 0 0 0-.794-2.08L25.033 2.452a1.58 1.58 0 0 0-2.079.793l-4.674 10.49a1.58 1.58 0 0 0 .793 2.08zm33.542 2.294H51.625A3.73 3.73 0 0 1 47.9 19.06V7.572a3.73 3.73 0 0 1 3.724-3.724h11.487a3.73 3.73 0 0 1 3.724 3.724V19.06a3.73 3.73 0 0 1-3.724 3.724M51.625 6c-.866 0-1.574.708-1.574 1.573V19.06c0 .865.708 1.574 1.573 1.574h11.487c.866 0 1.574-.709 1.574-1.574V7.572c0-.865-.708-1.573-1.574-1.573z"/><path d="m20.095 9.678-1.548 3.461c-.02.04-.04.072-.059.105l.604 3.724a1.573 1.573 0 0 1-1.299 1.803L6.451 20.607a1.6 1.6 0 0 1-1.174-.275 1.55 1.55 0 0 1-.63-1.023L2.813 7.966a1.6 1.6 0 0 1 .275-1.173c.243-.341.61-.564 1.023-.63l11.343-1.836q.129-.02.249-.02c.754 0 1.429.551 1.554 1.325l.61 3.75 1.6-3.586-.086-.505a3.727 3.727 0 0 0-4.268-3.081L3.769 4.045a3.65 3.65 0 0 0-2.42 1.489 3.7 3.7 0 0 0-.655 2.773L2.53 19.65a3.7 3.7 0 0 0 1.495 2.426 3.65 3.65 0 0 0 2.17.701q.297.002.603-.046l11.343-1.835a3.727 3.727 0 0 0 3.081-4.269zM33.7 15.093l1.664-3.731-.472-3.468a1.54 1.54 0 0 1 .309-1.16 1.54 1.54 0 0 1 1.042-.604l11.382-1.548q.108-.01.216-.012c.341 0 .67.111.951.32.052.04.098.086.144.125a3.75 3.75 0 0 1 1.908-1.075 3.6 3.6 0 0 0-.754-.767 3.7 3.7 0 0 0-2.753-.728L35.94 3.993a3.67 3.67 0 0 0-2.458 1.435 3.7 3.7 0 0 0-.728 2.754zm19.367 1.92L51.572 6a1.57 1.57 0 0 0-1.515 1.567v3.232l.886 6.504c.059.413-.053.826-.308 1.16a1.55 1.55 0 0 1-1.043.604L38.21 20.613a1.54 1.54 0 0 1-1.16-.308 1.54 1.54 0 0 1-.604-1.043l-.524-3.861-1.666 3.73.06.42a3.67 3.67 0 0 0 1.435 2.459c.656.498 1.436.76 2.25.76q.255-.002.51-.033l11.37-1.534a3.67 3.67 0 0 0 2.458-1.436c.603-.793.859-1.77.728-2.753M20.954 28.23l1.625-2.4h-1.337a.13.13 0 0 1-.131-.13v-.322a.13.13 0 0 1 .131-.13h2.197a.13.13 0 0 1 .13.13v.125a.13.13 0 0 1-.02.072l-1.592 2.4h1.429a.13.13 0 0 1 .131.13v.322a.13.13 0 0 1-.131.131h-2.321a.13.13 0 0 1-.131-.131v-.118a.1.1 0 0 1 .02-.079m6.844-1.35c0-.984.722-1.692 1.705-1.692 1.016 0 1.705.695 1.705 1.698 0 1.017-.702 1.718-1.718 1.718-1.023 0-1.692-.701-1.692-1.724m2.63.013c0-.597-.289-1.108-.938-1.108-.656 0-.905.53-.905 1.134 0 .57.308 1.095.938 1.095.649-.007.905-.564.905-1.121m5.442-1.652h.485a.13.13 0 0 1 .13.13v1.22h1.378v-1.22c0-.071.059-.13.13-.13h.486c.072 0 .131.059.131.13v3.05a.13.13 0 0 1-.131.13h-.478a.13.13 0 0 1-.132-.13v-1.233h-1.377v1.233a.13.13 0 0 1-.13.13h-.486a.13.13 0 0 1-.131-.13v-3.05a.12.12 0 0 1 .125-.13m7.27 1.639c0-.984.722-1.692 1.705-1.692 1.017 0 1.705.695 1.705 1.698 0 1.016-.701 1.718-1.718 1.718-1.023 0-1.691-.702-1.691-1.724m2.623.013c0-.597-.288-1.108-.937-1.108-.656 0-.905.53-.905 1.134 0 .57.308 1.095.938 1.095.648-.007.904-.564.904-1.121"/></g><defs><clipPath id="a"><path d="M.646.164h66.19v28.44H.646z"/></clipPath></defs></svg>