<svg width="20" height="16" viewBox="0 0 20 16" fill="none" xmlns="http://www.w3.org/2000/svg">
<path fill-rule="evenodd" clip-rule="evenodd" d="M0 1C0 0.447715 0.447715 0 1 0H19C19.5523 0 20 0.447715 20 1C20 1.55228 19.5523 2 19 2H1C0.447715 2 0 1.55228 0 1ZM19.7071 4.29289C20.0976 4.68342 20.0976 5.31658 19.7071 5.70711L17.4142 8L19.7071 10.2929C20.0976 10.6834 20.0976 11.3166 19.7071 11.7071C19.3166 12.0976 18.6834 12.0976 18.2929 11.7071L15.2929 8.70711C14.9024 8.31658 14.9024 7.68342 15.2929 7.29289L18.2929 4.29289C18.6834 3.90237 19.3166 3.90237 19.7071 4.29289ZM0 8C0 7.44772 0.447715 7 1 7H12C12.5523 7 13 7.44772 13 8C13 8.55228 12.5523 9 12 9H1C0.447715 9 0 8.55228 0 8ZM0 15C0 14.4477 0.447715 14 1 14H19C19.5523 14 20 14.4477 20 15C20 15.5523 19.5523 16 19 16H1C0.447715 16 0 15.5523 0 15Z" fill="#333333"/>
</svg>
