<svg width="1370" height="328" viewBox="0 0 1370 328" fill="none" xmlns="http://www.w3.org/2000/svg">
<path d="M164.574 13.5811C230.596 6.76183 278.343 39.7078 290.144 48.3652H290.179C279.149 73.2465 268.12 98.1402 257.091 123.021C249.347 116.973 236.254 108.244 218.062 102.658C200.095 97.1436 184.546 96.9418 174.798 97.5703C156.285 94.4394 138.484 101.532 129.826 115.384C122.402 127.397 125.521 143.099 136.978 151.365C137.891 152.029 138.815 152.693 139.74 153.357C159.925 167.921 181.996 179.556 205.051 188.925C223.231 196.325 245.291 208.588 265.559 229.069C265.926 229.437 266.282 229.804 266.638 230.172C305.81 270.459 311.419 334.109 278.367 379.566C276.992 381.44 275.556 383.314 274.038 385.176C241.887 424.573 197.662 430.753 188.353 431.844C161.171 433.967 116.875 433.717 67.0303 415.727C38.9114 405.587 16.5559 392.505 0 380.942C15.8325 355.919 31.6763 330.895 47.5088 305.871C60.6136 317.09 88.7806 337.927 129.803 344.462C142.67 346.514 154.459 346.775 164.682 346.182C181.403 345.209 196.287 333.788 199.667 317.387C199.904 316.26 200.094 315.11 200.225 313.912C202.027 298.02 194.069 282.152 179.861 273.187C149.299 256.204 118.738 239.233 88.1758 222.25C77.4786 216.32 67.6109 208.92 59.416 199.848C50.8298 190.348 42.0898 177.291 37.3223 160.355C29.8033 133.612 34.3214 104.769 48.707 79.9473C58.7046 62.6917 73.612 48.8754 90.6777 38.5576C107.957 28.1094 132.981 16.8425 164.574 13.5811ZM395.348 200.64C402.368 193.156 413.362 183.349 428.945 175.616C429.052 175.569 429.147 175.521 429.242 175.474C445.774 167.326 464.441 164.338 482.764 166.425C499.616 168.358 521.403 174.228 541.789 190.049C548.134 194.982 553.53 200.236 558.107 205.525V205.537C573.145 222.911 580.807 245.48 580.807 268.464V425.069H493.426V283.052C493.426 264.48 483.511 246.773 466.766 238.756C463.291 237.096 459.46 235.78 455.25 235.021C431.97 230.799 406.602 244.982 395.348 270.361V425.058H309.662V0H395.348V200.64ZM768.64 171.389L829.728 309.683H836.512L894.208 171.389L989.227 175.314C967.63 217.653 946.045 259.992 924.449 302.33C898.062 301.749 871.686 301.167 845.299 300.586H845.287C871.153 302.223 897.018 303.859 922.884 305.496C902.58 345.356 882.265 385.205 861.962 425.064H800.031L684.235 206.89V425.064H596V171.389H768.64ZM940.483 305.499C952.329 308.63 966.296 313.267 981.354 320.298C997.98 328.066 1011.58 336.7 1022.19 344.468L991.647 425.064H891.529C907.848 385.205 924.165 345.358 940.483 305.499ZM1359.34 305.484L1359.33 305.483V423.436H1196.68C1187.85 396.811 1179.01 370.174 1170.18 343.55C1180.59 333.445 1199.32 318.313 1226.52 310.711C1235.83 308.115 1244.47 306.857 1252.02 306.347L1273.62 363.023L1272.94 306.335L1325.16 304.098L1273.63 302.009V176.429H1359.34V305.484ZM1252.03 306.347C1252.03 306.347 1252.03 306.346 1252.02 306.347L1252.02 306.335L1252.03 306.347ZM940.483 305.499C940.48 305.498 940.477 305.498 940.474 305.497H940.485L940.483 305.499ZM1251.5 302.631C1235.02 301.99 1187.12 297.899 1149.37 261.241C1118.54 231.296 1109.91 194.614 1106.53 180.229C1105.96 177.785 1105.64 176.042 1104.98 172.591C1099.25 142.646 1098.92 120.717 1098.6 81.7471C1098.34 49.4773 1098.26 28.0432 1098.07 28.0117C1097.84 28.0117 1097.68 58.8579 1096.58 88.8506C1096.06 103.131 1095.41 115.842 1095.41 115.902C1095.04 122.781 1094.77 126.565 1094.48 132.886C1093.33 158.43 1093.44 158.739 1092.78 162.795C1089.84 180.928 1077.03 242.242 1023.45 277.56C990.69 299.156 957.697 302.251 941.71 302.643L941.745 302.631L1055.12 23.9082H1139.48L1251.5 302.631ZM640.117 12.7305C669.637 12.7306 693.567 36.6616 693.567 66.1816C693.567 95.7015 669.637 119.632 640.117 119.632C610.597 119.632 586.666 95.7016 586.666 66.1816C586.666 36.6615 610.597 12.7305 640.117 12.7305ZM1316.55 12.7305C1346.07 12.7305 1370 36.6615 1370 66.1816C1370 95.7016 1346.07 119.632 1316.55 119.632C1287.03 119.632 1263.1 95.7015 1263.1 66.1816C1263.1 36.6616 1287.03 12.7305 1316.55 12.7305Z" fill="white" fill-opacity="0.1"/>
</svg>
