<svg width="1648" height="456" viewBox="0 0 1648 456" fill="none" xmlns="http://www.w3.org/2000/svg">
<path d="M170.729 455.089C117.952 455.089 76.301 441.797 45.777 415.211C15.4498 388.429 0.286275 351.8 0.286275 305.325H65.8638C66.0607 334.273 75.3164 356.92 93.6308 373.265C112.142 389.61 137.841 397.783 170.729 397.783C200.662 397.783 224.589 391.481 242.509 378.878C260.627 366.077 269.686 348.944 269.686 327.479C269.686 310.543 263.187 296.857 250.19 286.419C237.389 275.785 215.727 266.825 185.203 259.539L137.054 248.018C92.5477 237.384 60.0544 222.614 39.5737 203.709C19.29 184.607 9.1481 159.794 9.1481 129.27C9.1481 103.472 15.6468 80.9235 28.6441 61.6244C41.6415 42.3254 59.8574 27.3587 83.292 16.7245C106.924 6.09035 134.494 0.773253 166.002 0.773253C213.462 0.773253 251.174 13.1798 279.138 37.9929C307.299 62.806 322.069 96.6779 323.447 139.609H259.938C258.362 114.205 249.107 94.3147 232.171 79.9389C215.235 65.3661 192.883 58.0797 165.116 58.0797C138.531 58.0797 116.77 64.4799 99.8341 77.2803C82.8982 89.8838 74.4302 106.131 74.4302 126.02C74.4302 141.972 80.9289 154.969 93.9262 165.012C106.924 174.859 128.487 183.425 158.618 190.712L206.176 201.937C250.288 212.374 282.782 227.439 303.656 247.132C324.728 266.825 335.263 292.426 335.263 323.934C335.263 350.323 328.469 373.364 314.881 393.057C301.293 412.75 282.191 428.012 257.575 438.843C232.958 449.674 204.01 455.089 170.729 455.089ZM436.749 268.4V448H374.421V7.86271H436.749V180.964C458.214 146.895 489.231 129.86 529.798 129.86C551.263 129.86 570.464 134.587 587.4 144.039C604.533 153.295 618.022 167.08 627.869 185.395C637.715 203.709 642.639 226.454 642.639 253.631V448H580.31V261.311C580.31 236.301 574.304 217.494 562.291 204.891C550.279 192.09 533.54 185.69 512.074 185.69C490.806 185.69 472.885 192.287 458.313 205.481C443.937 218.479 436.749 239.452 436.749 268.4ZM694.793 448V136.064H757.122V448H694.793ZM725.81 82.302C714.782 82.302 705.428 78.6588 697.747 71.3725C690.264 63.8891 686.522 54.8304 686.522 44.1962C686.522 33.3651 690.264 24.3063 697.747 17.0199C705.428 9.53661 714.782 5.79495 725.81 5.79495C736.838 5.79495 746.192 9.53661 753.872 17.0199C761.552 24.3063 765.393 33.3651 765.393 44.1962C765.393 54.8304 761.552 63.8891 753.872 71.3725C746.192 78.6588 736.838 82.302 725.81 82.302ZM900.258 448L781.509 136.064H848.268L910.301 307.097C914.634 319.307 918.769 331.516 922.708 343.726C926.646 355.935 930.585 368.047 934.523 380.059C938.462 368.047 942.401 355.935 946.339 343.726C950.278 331.516 954.315 319.307 958.45 307.097L1019.6 136.064H1085.47L966.426 448H900.258ZM1038.08 448L1197.89 7.86271H1277.05L1435.68 448H1364.49L1325.5 333.682H1147.96L1107.79 448H1038.08ZM1167.75 277.853H1306.29L1279.71 199.869C1273.8 181.751 1267.5 162.354 1260.8 141.676C1254.11 120.999 1246.43 96.3825 1237.76 67.8277C1228.9 96.3825 1221.12 120.999 1214.43 141.676C1207.73 162.354 1201.33 181.751 1195.23 199.869L1167.75 277.853ZM1458 448V136.064H1520.33V448H1458ZM1489.01 82.302C1477.99 82.302 1468.63 78.6588 1460.95 71.3725C1453.47 63.8891 1449.73 54.8304 1449.73 44.1962C1449.73 33.3651 1453.47 24.3063 1460.95 17.0199C1468.63 9.53661 1477.99 5.79495 1489.01 5.79495C1500.04 5.79495 1509.4 9.53661 1517.08 17.0199C1524.76 24.3063 1528.6 33.3651 1528.6 44.1962C1528.6 54.8304 1524.76 63.8891 1517.08 71.3725C1509.4 78.6588 1500.04 82.302 1489.01 82.302ZM1606.45 453.022C1595.03 453.022 1585.28 449.083 1577.21 441.206C1569.33 433.132 1565.39 423.285 1565.39 411.667C1565.39 400.245 1569.33 390.497 1577.21 382.422C1585.28 374.348 1595.03 370.311 1606.45 370.311C1618.07 370.311 1627.82 374.348 1635.69 382.422C1643.77 390.497 1647.81 400.245 1647.81 411.667C1647.81 423.285 1643.77 433.132 1635.69 441.206C1627.82 449.083 1618.07 453.022 1606.45 453.022Z" fill="url(#paint0_linear_651_16916)"/>
<defs>
<linearGradient id="paint0_linear_651_16916" x1="-471.587" y1="-38" x2="781.447" y2="-861.049" gradientUnits="userSpaceOnUse">
<stop stop-color="white"/>
<stop offset="1" stop-color="#3DCAFF"/>
</linearGradient>
</defs>
</svg>
