<svg width="13" height="16" viewBox="0 0 13 16" fill="none" xmlns="http://www.w3.org/2000/svg">
<mask id="mask0_48_32" style="mask-type:alpha" maskUnits="userSpaceOnUse" x="0" y="0" width="13" height="16">
<circle cx="1.79897" cy="1.95571" r="1.25356" fill="#02324F"/>
<circle cx="1.25356" cy="1.25356" r="1.25356" transform="matrix(-1 0 0 1 9.32031 10.104)" fill="#02324F"/>
<circle cx="4.93325" cy="5.08974" r="1.25356" fill="#02324F"/>
<circle cx="1.25356" cy="1.25356" r="1.25356" transform="matrix(-1 0 0 1 6.18677 13.2378)" fill="#02324F"/>
<circle cx="8.06704" cy="8.22353" r="1.25356" fill="#02324F"/>
<circle cx="4.93325" cy="1.95571" r="1.25356" fill="#02324F"/>
<circle cx="1.25356" cy="1.25356" r="1.25356" transform="matrix(-1 0 0 1 6.18677 10.104)" fill="#02324F"/>
<circle cx="8.06704" cy="5.08974" r="1.25356" fill="#02324F"/>
<circle cx="1.25356" cy="1.25356" r="1.25356" transform="matrix(-1 0 0 1 3.05273 13.2378)" fill="#02324F"/>
<circle cx="11.2003" cy="8.22353" r="1.25356" fill="#02324F"/>
</mask>
<g mask="url(#mask0_48_32)">
<rect x="-3.84155" y="-1.80493" width="19.4302" height="20.057" fill="#333333"/>
</g>
</svg>
