<svg width="69" height="22" viewBox="0 0 69 22" fill="none" xmlns="http://www.w3.org/2000/svg">
<path d="M14.6169 2.90907C14.0228 2.47324 11.6192 0.814715 8.29561 1.158C6.70514 1.32218 5.44543 1.88935 4.57557 2.41533C3.71645 2.93474 2.966 3.63027 2.46271 4.49893C1.73852 5.7485 1.51106 7.20046 1.88957 8.54674C2.12957 9.39929 2.56958 10.0566 3.00182 10.5348C3.41436 10.9915 3.91108 11.3641 4.4496 11.6626C5.98812 12.5175 7.52664 13.3719 9.06517 14.2268C9.7804 14.6781 10.181 15.477 10.0903 16.277C10.0837 16.3373 10.0741 16.3952 10.0622 16.4519C9.89204 17.2776 9.14278 17.8525 8.30098 17.9015C7.78635 17.9313 7.19291 17.9182 6.54514 17.8149C4.48004 17.4859 3.06212 16.437 2.40241 15.8722C1.60539 17.1319 0.807766 18.3916 0.0107422 19.6513C0.844184 20.2334 1.96957 20.8919 3.38511 21.4024C5.89439 22.3081 8.12426 22.3206 9.49263 22.2137C9.9613 22.1588 12.1876 21.8478 13.8061 19.8645C13.8825 19.7707 13.9548 19.6764 14.024 19.5821C15.6879 17.2937 15.4055 14.0895 13.4336 12.0614C13.4157 12.0429 13.3977 12.0244 13.3792 12.0059C12.3589 10.9748 11.2485 10.3575 10.3332 9.98496C9.17263 9.51331 8.06157 8.92764 7.04544 8.19449C6.99888 8.16106 6.95231 8.12763 6.90634 8.0942C6.32962 7.67807 6.1726 6.88762 6.54633 6.28284C6.98216 5.58551 7.87829 5.22849 8.81024 5.38611C9.30099 5.35447 10.0837 5.36461 10.9882 5.64223C11.904 5.92343 12.5631 6.36284 12.953 6.66732C13.5082 5.41477 14.0634 4.16162 14.6187 2.90907H14.6169Z" fill="#333333"/>
<path d="M28.1064 10.8207C27.8759 10.5545 27.6043 10.29 27.2849 10.0416C26.2586 9.2452 25.1619 8.94968 24.3135 8.85237C23.3911 8.74729 22.4514 8.89774 21.6191 9.30789C21.6144 9.31028 21.6096 9.31267 21.6042 9.31506C20.8197 9.70432 20.2663 10.1981 19.9128 10.5748V0.474365H15.5994V21.8722H19.9128V14.0847C20.4794 12.807 21.7564 12.093 22.9284 12.3055C23.1403 12.3437 23.3332 12.41 23.5081 12.4936C24.3511 12.8972 24.8502 13.7885 24.8502 14.7235V21.8728H29.2491V13.9891C29.2491 12.8321 28.8634 11.696 28.1064 10.8213V10.8207Z" fill="#333333"/>
<path d="M34.4558 9.10205H30.0139V21.8723H34.4558V9.10205Z" fill="#333333"/>
<path d="M47.3556 15.853C46.5341 17.8596 45.7126 19.8656 44.8911 21.8722H49.9312L51.4685 17.8148C50.9348 17.4238 50.25 16.9892 49.413 16.5981C48.6547 16.2441 47.9514 16.0106 47.355 15.853H47.3556Z" fill="#333333"/>
<path d="M66.2872 6.49654C67.7733 6.49654 68.978 5.29184 68.978 3.80576C68.978 2.31969 67.7733 1.11499 66.2872 1.11499C64.8011 1.11499 63.5964 2.31969 63.5964 3.80576C63.5964 5.29184 64.8011 6.49654 66.2872 6.49654Z" fill="#333333"/>
<path d="M32.2347 6.49654C33.7208 6.49654 34.9255 5.29184 34.9255 3.80576C34.9255 2.31969 33.7208 1.11499 32.2347 1.11499C30.7486 1.11499 29.5439 2.31969 29.5439 3.80576C29.5439 5.29184 30.7486 6.49654 32.2347 6.49654Z" fill="#333333"/>
<path d="M47.4188 15.7092L53.1263 1.67798H57.3729L63.0124 15.7092C62.1825 15.6769 59.7712 15.471 57.8708 13.6256C56.3186 12.1181 55.8845 10.2715 55.7144 9.54732C55.6857 9.42433 55.6696 9.33657 55.6362 9.16283C55.3478 7.65535 55.3311 6.55146 55.315 4.58965C55.3019 2.96396 55.2977 1.88455 55.2881 1.88455C55.2768 1.88455 55.2684 3.4374 55.2135 4.94726C55.1872 5.66787 55.1544 6.30907 55.1544 6.30907C55.1359 6.65534 55.1221 6.84579 55.1078 7.164C55.0499 8.44999 55.0553 8.46551 55.0218 8.66969C54.8738 9.58254 54.229 12.6691 51.5317 14.4471C49.8827 15.5342 48.2218 15.6901 47.417 15.7098L47.4188 15.7092Z" fill="#333333"/>
<path d="M63.0393 15.8959C62.659 15.9215 62.2238 15.9848 61.7551 16.1156C60.3856 16.4982 59.4429 17.26 58.9187 17.7687C59.3635 19.109 59.8083 20.4499 60.253 21.7902H68.4406V15.709L64.0919 15.8953L64.1259 18.749L63.0387 15.8953L63.0393 15.8959Z" fill="#333333"/>
<path d="M64.1265 9.3562H68.4411V15.853L64.1265 15.6781V9.3562Z" fill="#333333"/>
<path d="M42.564 15.606C43.8924 15.6353 45.2201 15.6645 46.5485 15.6938C47.6357 13.5624 48.7223 11.431 49.8094 9.29966L45.0261 9.10205L42.1216 16.0639H41.7801L38.7048 9.10205H34.3914V10.7677L40.2851 21.8723H43.4028C44.4249 19.8657 45.4476 17.8598 46.4697 15.8532C45.1676 15.7708 43.8655 15.6884 42.5634 15.606H42.564Z" fill="#333333"/>
</svg>
