<svg width="29" height="29" viewBox="0 0 29 29" fill="none" xmlns="http://www.w3.org/2000/svg">
<path d="M4.31479 10.7268H25.3213M8.96652 3.6956L14.8181 10.7268L20.6795 3.70053M25.0832 10.1702L21.0077 4.05695C20.9051 3.90302 20.8538 3.82606 20.786 3.77034C20.726 3.72102 20.6569 3.68401 20.5825 3.66144C20.4986 3.63594 20.4061 3.63594 20.2211 3.63594H9.415C9.23001 3.63594 9.13751 3.63594 9.05355 3.66144C8.97922 3.68401 8.91007 3.72102 8.85006 3.77034C8.78227 3.82606 8.73096 3.90302 8.62834 4.05695L4.55284 10.1702C4.41925 10.3706 4.35245 10.4708 4.32851 10.5786C4.30737 10.6738 4.31011 10.7727 4.3365 10.8666C4.36639 10.9729 4.43864 11.0692 4.58314 11.2619L14.0617 23.9C14.3183 24.2421 14.4466 24.4132 14.6039 24.4743C14.7416 24.5279 14.8945 24.5279 15.0322 24.4743C15.1895 24.4132 15.3178 24.2421 15.5744 23.9L25.0529 11.2619C25.1974 11.0692 25.2697 10.9729 25.2996 10.8666C25.326 10.7727 25.3287 10.6738 25.3076 10.5786C25.2836 10.4708 25.2168 10.3706 25.0832 10.1702Z" stroke="white" stroke-width="1.77271" stroke-linecap="round" stroke-linejoin="round"/>
</svg>
