<svg width="48" height="49" viewBox="0 0 48 49" fill="none" xmlns="http://www.w3.org/2000/svg">
<g clip-path="url(#clip0_214_4746)">
<rect y="0.461426" width="47.8481" height="47.8481" rx="23.9241" fill="url(#paint0_linear_214_4746)"/>
<path d="M13.4239 20.8412H34.4238M18.0742 13.8123L23.9239 20.8413L29.7834 13.8172M34.1859 20.2848L30.1116 14.1735C30.009 14.0196 29.9578 13.9427 29.89 13.887C29.83 13.8377 29.7609 13.8007 29.6866 13.7781C29.6026 13.7526 29.5102 13.7526 29.3252 13.7526H18.5225C18.3376 13.7526 18.2451 13.7526 18.1612 13.7781C18.0869 13.8007 18.0178 13.8377 17.9578 13.887C17.89 13.9427 17.8387 14.0196 17.7361 14.1735L13.6619 20.2848C13.5283 20.4852 13.4616 20.5853 13.4376 20.6931C13.4165 20.7883 13.4192 20.8872 13.4456 20.981C13.4755 21.0873 13.5477 21.1836 13.6922 21.3762L23.1678 34.0103C23.4243 34.3523 23.5525 34.5233 23.7098 34.5845C23.8475 34.638 24.0003 34.638 24.138 34.5845C24.2952 34.5233 24.4235 34.3523 24.68 34.0103L34.1556 21.3762C34.3 21.1836 34.3722 21.0873 34.4021 20.981C34.4285 20.8872 34.4312 20.7883 34.4101 20.6931C34.3862 20.5853 34.3194 20.4852 34.1859 20.2848Z" stroke="white" stroke-width="1.77215" stroke-linecap="round" stroke-linejoin="round"/>
</g>
<defs>
<linearGradient id="paint0_linear_214_4746" x1="45.3372" y1="4.51635" x2="0.721723" y2="17.6148" gradientUnits="userSpaceOnUse">
<stop offset="0.2411" stop-color="#1192BB"/>
<stop offset="0.514423" stop-color="#A233FF"/>
<stop offset="0.6249" stop-color="#00CEDB"/>
</linearGradient>
<clipPath id="clip0_214_4746">
<rect y="0.461426" width="47.8481" height="47.8481" rx="23.9241" fill="white"/>
</clipPath>
</defs>
</svg>
