<svg width="30" height="30" viewBox="0 0 30 30" fill="none" xmlns="http://www.w3.org/2000/svg">
<path d="M22.7144 2.45703C23.9894 2.45703 25.0795 2.90971 25.9849 3.81507C26.8903 4.72042 27.3429 5.8106 27.3429 7.0856V22.5142C27.3429 23.7892 26.8903 24.8794 25.9849 25.7847C25.0795 26.6901 23.9894 27.1427 22.7144 27.1427H19.6929V17.5802H22.8912L23.3733 13.8517H19.6929V11.4731C19.6929 10.8731 19.8188 10.4231 20.0706 10.1231C20.3224 9.8231 20.8126 9.6731 21.5412 9.6731L23.5019 9.65703V6.33025C22.8269 6.23382 21.8733 6.1856 20.6412 6.1856C19.184 6.1856 18.0188 6.61417 17.1456 7.47132C16.2724 8.32846 15.8358 9.53917 15.8358 11.1035V13.8517H12.6215V17.5802H15.8358V27.1427H7.2858C6.0108 27.1427 4.92062 26.6901 4.01526 25.7847C3.10991 24.8794 2.65723 23.7892 2.65723 22.5142V7.0856C2.65723 5.8106 3.10991 4.72042 4.01526 3.81507C4.92062 2.90971 6.0108 2.45703 7.2858 2.45703H22.7144Z" fill="white"/>
</svg>
