<svg width="38" height="38" viewBox="0 0 38 38" fill="none" xmlns="http://www.w3.org/2000/svg">
<g clip-path="url(#clip0_214_3855)">
<mask id="mask0_214_3855" style="mask-type:luminance" maskUnits="userSpaceOnUse" x="1" y="3" width="37" height="33">
<path d="M37.7715 3.26465H1.20923V35.932H37.7715V3.26465Z" fill="white"/>
</mask>
<g mask="url(#mask0_214_3855)">
<path d="M3.97363 31.2615L5.58606 34.0466C5.9211 34.6329 6.40274 35.0936 6.96814 35.4286L12.7268 25.4609H1.20947C1.20947 26.11 1.377 26.7592 1.71205 27.3456L3.97363 31.2615Z" fill="#0066DA"/>
<path d="M19.4906 13.7343L13.732 3.7666C13.1665 4.10165 12.6849 4.56235 12.3498 5.14868L1.71205 23.5764C1.38316 24.1501 1.20991 24.7998 1.20947 25.461H12.7268L19.4906 13.7343Z" fill="#00AC47"/>
<path d="M32.013 35.4286C32.5784 35.0936 33.06 34.6329 33.395 34.0466L34.0652 32.8948L37.2691 27.3456C37.6041 26.7592 37.7716 26.11 37.7716 25.4609H26.2534L28.7043 30.2773L32.013 35.4286Z" fill="#EA4335"/>
<path d="M19.4902 13.7349L25.2489 3.76722C24.6834 3.43217 24.0343 3.26465 23.3642 3.26465H15.6161C14.946 3.26465 14.2969 3.45311 13.7314 3.76722L19.4902 13.7349Z" fill="#00832D"/>
<path d="M26.2545 25.4609H12.727L6.96826 35.4286C7.53366 35.7637 8.18281 35.9313 8.85292 35.9313H30.1285C30.7986 35.9313 31.4479 35.7428 32.0132 35.4286L26.2545 25.4609Z" fill="#2684FC"/>
<path d="M31.9501 14.3625L26.6312 5.14868C26.2962 4.56235 25.8145 4.10165 25.2492 3.7666L19.4905 13.7343L26.2543 25.461H37.7507C37.7507 24.8119 37.5832 24.1627 37.2481 23.5764L31.9501 14.3625Z" fill="#FFBA00"/>
</g>
</g>
<defs>
<clipPath id="clip0_214_3855">
<rect width="37.023" height="37.023" fill="white" transform="translate(0.979004 0.866211)"/>
</clipPath>
</defs>
</svg>
