<svg xmlns="http://www.w3.org/2000/svg" viewBox="0 0 48 48" width="48px" height="48px">
  <rect width="22" height="22" x="13" y="13" fill="#fff"/>
  <polygon fill="#1e88e5" points="25.68,20.92 26.688,22.36 28.272,21.208 28.272,29.56 30,29.56 30,18.616 28.56,18.616"/>
  <path fill="#1e88e5" d="M22.943,23.745c0.625-0.574,1.013-1.37,1.013-2.249c0-1.747-1.533-3.168-3.417-3.168 c-1.602,0-2.972,1.009-3.33,2.453l1.657,0.421c0.165-0.664,0.868-1.146,1.673-1.146c0.942,0,1.709,0.646,1.709,1.44 c0,0.794-0.767,1.44-1.709,1.44h-0.997v1.728h0.997c1.081,0,1.993,0.751,1.993,1.64c0,0.904-0.866,1.64-1.931,1.64 c-0.962,0-1.784-0.61-1.914-1.418L17,26.802c0.262,1.636,1.81,2.87,3.6,2.87c2.007,0,3.64-1.511,3.64-3.368 C24.24,25.281,23.736,24.363,22.943,23.745z"/>
  <polygon fill="#fbc02d" points="34,42 14,42 13,38 35,38"/>
  <polygon fill="#4caf50" points="38,35 10,35 11,38 37,38"/>
  <path fill="#1e88e5" d="M34,14l1-4l-1.996-0.005C32.687,10.006,32.382,10,32.06,10H15.94c-0.322,0-0.627,0.006-0.944,0.005 L13,10l1,4H34z"/>
  <polygon fill="#e53935" points="34,34 14,34 13,38 35,38"/>
  <path fill="#1565c0" d="M35,34v-5.8c0-0.993-0.669-1.813-1.667-1.813H14.667C13.669,26.387,13,27.207,13,28.2V34H35z"/>
  <path fill="#1976d2" d="M33.333,28.387h-18.666c-0.998,0-1.667,0.82-1.667,1.813V34h22v-3.8 C35,29.207,34.331,28.387,33.333,28.387z"/>
</svg>
