<svg width="46" height="46" viewBox="0 0 46 46" fill="none" xmlns="http://www.w3.org/2000/svg">
<g clip-path="url(#clip0_214_3809)">
<g clip-path="url(#clip1_214_3809)">
<g clip-path="url(#clip2_214_3809)">
<mask id="mask0_214_3809" style="mask-type:luminance" maskUnits="userSpaceOnUse" x="2" y="1" width="43" height="45">
<path d="M44.5372 1.71875H2.33911V45.4797H44.5372V1.71875Z" fill="white"/>
</mask>
<g mask="url(#mask0_214_3809)">
<path fill-rule="evenodd" clip-rule="evenodd" d="M32.9941 33.2514C29.7254 33.2514 27.0757 30.6293 27.0757 27.3951C27.0757 24.1603 29.7254 21.5382 32.9941 21.5382C36.2627 21.5382 38.9125 24.1603 38.9125 27.3951C38.9125 30.6293 36.2627 33.2514 32.9941 33.2514ZM34.7658 16.1197V10.9096C36.1401 10.2673 37.1027 8.89153 37.1027 7.29497V7.17471C37.1027 4.9712 35.2808 3.16839 33.0542 3.16839H32.9333C30.7067 3.16839 28.8849 4.9712 28.8849 7.17471V7.29497C28.8849 8.89153 29.8475 10.2678 31.2217 10.9101V16.1197C29.1756 16.4327 27.3062 17.2677 25.7645 18.4969L11.3092 7.36914C11.4046 7.00666 11.4717 6.63352 11.4722 6.24126C11.4745 3.74609 9.43356 1.72017 6.91107 1.7168C4.38971 1.71399 2.34195 3.73429 2.33911 6.23002C2.33628 8.72575 4.37721 10.7517 6.8997 10.7545C7.72142 10.7556 8.48237 10.5246 9.14906 10.1492L23.368 21.096C22.159 22.9021 21.4503 25.0658 21.4503 27.3951C21.4503 29.8335 22.2288 32.0893 23.5441 33.9443L19.2203 38.2238C18.8784 38.1222 18.5241 38.0513 18.1481 38.0513C16.0759 38.0513 14.3956 39.7136 14.3956 41.7643C14.3956 43.8155 16.0759 45.4778 18.1481 45.4778C20.2209 45.4778 21.9006 43.8155 21.9006 41.7643C21.9006 41.3934 21.8291 41.0421 21.7263 40.7038L26.0035 36.471C27.9451 37.9373 30.3631 38.8184 32.9941 38.8184C39.3696 38.8184 44.5372 33.7038 44.5372 27.3951C44.5372 21.6837 40.2975 16.9655 34.7658 16.1197Z" fill="#FF7A59"/>
</g>
</g>
</g>
</g>
<defs>
<clipPath id="clip0_214_3809">
<rect width="45.1285" height="45.1285" fill="white" transform="translate(0.873901 0.756836)"/>
</clipPath>
<clipPath id="clip1_214_3809">
<rect width="45.1285" height="45.1285" fill="white" transform="translate(0.873901 0.756836)"/>
</clipPath>
<clipPath id="clip2_214_3809">
<rect width="43.761" height="45.1285" fill="white" transform="translate(1.55762 0.756836)"/>
</clipPath>
</defs>
</svg>
