<svg width="24" height="16" viewBox="0 0 24 16" xmlns="http://www.w3.org/2000/svg">
  <rect width="24" height="5.33" fill="#FF9933"/>
  <rect width="24" height="5.33" y="5.33" fill="#FFFFFF"/>
  <rect width="24" height="5.33" y="10.67" fill="#138808"/>
  <circle cx="12" cy="8" r="1.5" fill="#000080" stroke="#000080" stroke-width="0.1"/>
  <circle cx="12" cy="8" r="1.2" fill="none" stroke="#000080" stroke-width="0.2"/>
  <g transform="translate(12,8)">
    <path d="M0,-1.2 L0.3,0 L0,-1.2 L-0.3,0 Z" fill="#000080" transform="rotate(0)"/>
    <path d="M0,-1.2 L0.3,0 L0,-1.2 L-0.3,0 Z" fill="#000080" transform="rotate(15)"/>
    <path d="M0,-1.2 L0.3,0 L0,-1.2 L-0.3,0 Z" fill="#000080" transform="rotate(30)"/>
    <path d="M0,-1.2 L0.3,0 L0,-1.2 L-0.3,0 Z" fill="#000080" transform="rotate(45)"/>
    <path d="M0,-1.2 L0.3,0 L0,-1.2 L-0.3,0 Z" fill="#000080" transform="rotate(60)"/>
    <path d="M0,-1.2 L0.3,0 L0,-1.2 L-0.3,0 Z" fill="#000080" transform="rotate(75)"/>
    <path d="M0,-1.2 L0.3,0 L0,-1.2 L-0.3,0 Z" fill="#000080" transform="rotate(90)"/>
    <path d="M0,-1.2 L0.3,0 L0,-1.2 L-0.3,0 Z" fill="#000080" transform="rotate(105)"/>
    <path d="M0,-1.2 L0.3,0 L0,-1.2 L-0.3,0 Z" fill="#000080" transform="rotate(120)"/>
    <path d="M0,-1.2 L0.3,0 L0,-1.2 L-0.3,0 Z" fill="#000080" transform="rotate(135)"/>
    <path d="M0,-1.2 L0.3,0 L0,-1.2 L-0.3,0 Z" fill="#000080" transform="rotate(150)"/>
    <path d="M0,-1.2 L0.3,0 L0,-1.2 L-0.3,0 Z" fill="#000080" transform="rotate(165)"/>
    <path d="M0,-1.2 L0.3,0 L0,-1.2 L-0.3,0 Z" fill="#000080" transform="rotate(180)"/>
    <path d="M0,-1.2 L0.3,0 L0,-1.2 L-0.3,0 Z" fill="#000080" transform="rotate(195)"/>
    <path d="M0,-1.2 L0.3,0 L0,-1.2 L-0.3,0 Z" fill="#000080" transform="rotate(210)"/>
    <path d="M0,-1.2 L0.3,0 L0,-1.2 L-0.3,0 Z" fill="#000080" transform="rotate(225)"/>
    <path d="M0,-1.2 L0.3,0 L0,-1.2 L-0.3,0 Z" fill="#000080" transform="rotate(240)"/>
    <path d="M0,-1.2 L0.3,0 L0,-1.2 L-0.3,0 Z" fill="#000080" transform="rotate(255)"/>
    <path d="M0,-1.2 L0.3,0 L0,-1.2 L-0.3,0 Z" fill="#000080" transform="rotate(270)"/>
    <path d="M0,-1.2 L0.3,0 L0,-1.2 L-0.3,0 Z" fill="#000080" transform="rotate(285)"/>
    <path d="M0,-1.2 L0.3,0 L0,-1.2 L-0.3,0 Z" fill="#000080" transform="rotate(300)"/>
    <path d="M0,-1.2 L0.3,0 L0,-1.2 L-0.3,0 Z" fill="#000080" transform="rotate(315)"/>
    <path d="M0,-1.2 L0.3,0 L0,-1.2 L-0.3,0 Z" fill="#000080" transform="rotate(330)"/>
    <path d="M0,-1.2 L0.3,0 L0,-1.2 L-0.3,0 Z" fill="#000080" transform="rotate(345)"/>
  </g>
</svg>