<svg width="29" height="30" viewBox="0 0 29 30" fill="none" xmlns="http://www.w3.org/2000/svg">
<g clip-path="url(#clip0_214_1826)">
<path d="M14.4001 2.7998C17.6605 2.7998 18.0673 2.8118 19.3465 2.8718C20.6245 2.9318 21.4945 3.1322 22.2601 3.4298C23.0521 3.7346 23.7193 4.1474 24.3865 4.8134C24.9967 5.41328 25.4689 6.13891 25.7701 6.9398C26.0665 7.7042 26.2681 8.5754 26.3281 9.8534C26.3845 11.1326 26.4001 11.5394 26.4001 14.7998C26.4001 18.0602 26.3881 18.467 26.3281 19.7462C26.2681 21.0242 26.0665 21.8942 25.7701 22.6598C25.4698 23.4611 24.9975 24.1869 24.3865 24.7862C23.7865 25.3962 23.0609 25.8683 22.2601 26.1698C21.4957 26.4662 20.6245 26.6678 19.3465 26.7278C18.0673 26.7842 17.6605 26.7998 14.4001 26.7998C11.1397 26.7998 10.7329 26.7878 9.45375 26.7278C8.17575 26.6678 7.30575 26.4662 6.54015 26.1698C5.73894 25.8692 5.01318 25.3969 4.41375 24.7862C3.80343 24.1864 3.33126 23.4608 3.03015 22.6598C2.73255 21.8954 2.53215 21.0242 2.47215 19.7462C2.41575 18.467 2.40015 18.0602 2.40015 14.7998C2.40015 11.5394 2.41215 11.1326 2.47215 9.8534C2.53215 8.5742 2.73255 7.7054 3.03015 6.9398C3.33043 6.13842 3.80271 5.41259 4.41375 4.8134C5.01335 4.20288 5.73906 3.73068 6.54015 3.4298C7.30575 3.1322 8.17455 2.9318 9.45375 2.8718C10.7329 2.8154 11.1397 2.7998 14.4001 2.7998ZM14.4001 8.7998C12.8088 8.79981 11.2827 9.43195 10.1575 10.5572C9.03229 11.6824 8.40015 13.2085 8.40015 14.7998C8.40015 16.3911 9.03229 17.9172 10.1575 19.0424C11.2827 20.1677 12.8088 20.7998 14.4001 20.7998C15.9914 20.7998 17.5176 20.1677 18.6428 19.0424C19.768 17.9172 20.4001 16.3911 20.4001 14.7998C20.4001 13.2085 19.768 11.6824 18.6428 10.5572C17.5176 9.43195 15.9914 8.7998 14.4001 8.7998ZM22.2001 8.4998C22.2001 8.10198 22.0421 7.72045 21.7608 7.43914C21.4795 7.15784 21.098 6.9998 20.7001 6.9998C20.3023 6.9998 19.9208 7.15784 19.6395 7.43914C19.3582 7.72045 19.2001 8.10198 19.2001 8.4998C19.2001 8.89763 19.3582 9.27916 19.6395 9.56047C19.9208 9.84177 20.3023 9.9998 20.7001 9.9998C21.098 9.9998 21.4795 9.84177 21.7608 9.56047C22.0421 9.27916 22.2001 8.89763 22.2001 8.4998ZM14.4001 11.1998C15.3549 11.1998 16.2706 11.5791 16.9457 12.2542C17.6209 12.9294 18.0001 13.845 18.0001 14.7998C18.0001 15.7546 17.6209 16.6703 16.9457 17.3454C16.2706 18.0205 15.3549 18.3998 14.4001 18.3998C13.4454 18.3998 12.5297 18.0205 11.8546 17.3454C11.1794 16.6703 10.8001 15.7546 10.8001 14.7998C10.8001 13.845 11.1794 12.9294 11.8546 12.2542C12.5297 11.5791 13.4454 11.1998 14.4001 11.1998Z" fill="white"/>
</g>
<defs>
<clipPath id="clip0_214_1826">
<rect width="28.8" height="28.8" fill="white" transform="translate(0.000244141 0.400391)"/>
</clipPath>
</defs>
</svg>
