<svg width="25" height="25" viewBox="0 0 25 25" fill="none" xmlns="http://www.w3.org/2000/svg">
<g clip-path="url(#clip0_214_1832)">
<path d="M20.9403 24.585H4.81905C2.69043 24.585 0.95874 22.857 0.95874 20.7327V4.65211C0.95874 2.5278 2.69043 0.799805 4.81905 0.799805H20.9403C23.0683 0.799805 24.8 2.5278 24.8 4.65211V20.7333C24.8 22.8577 23.0683 24.585 20.9403 24.585ZM9.01474 20.4632H9.01966V10.2035H5.82766V20.4632H9.01412H9.01474ZM7.42151 8.80227C7.6642 8.80259 7.90457 8.75503 8.12885 8.6623C8.35314 8.56958 8.55692 8.43351 8.72853 8.2619C8.90014 8.09029 9.0362 7.88651 9.12893 7.66223C9.22165 7.43795 9.26922 7.19757 9.26889 6.95488C9.26792 6.46522 9.07297 5.9959 8.72673 5.64966C8.38049 5.30342 7.91117 5.10847 7.42151 5.1075C6.9316 5.10766 6.46181 5.30235 6.11539 5.64876C5.76897 5.99518 5.57429 6.46497 5.57412 6.95488C5.57429 7.44479 5.76897 7.91458 6.11539 8.261C6.46181 8.60742 6.9316 8.8021 7.42151 8.80227ZM20.9587 20.4638V14.8392C20.9587 12.0755 20.3587 9.94934 17.1341 9.94934C15.584 9.94934 14.5434 10.7986 14.1157 11.6047H14.0726V10.2035H11.016V20.4632H14.2024V15.3863C14.2024 14.0472 14.4566 12.7518 16.1163 12.7518C17.7483 12.7518 17.7723 14.2829 17.7723 15.4724V20.4632H20.9587V20.4638Z" fill="white"/>
</g>
<defs>
<clipPath id="clip0_214_1832">
<rect width="24" height="24" fill="white" transform="translate(0.799805 0.799805)"/>
</clipPath>
</defs>
</svg>
