<svg width="61" height="21" viewBox="0 0 61 21" fill="none" xmlns="http://www.w3.org/2000/svg">
<path d="M53.6691 20.3946C51.7248 20.3946 49.8601 19.6111 48.4852 18.2165C47.1103 16.8218 46.338 14.9303 46.338 12.958C46.338 10.9858 47.1103 9.09425 48.4852 7.69963C49.8601 6.30502 51.7248 5.52153 53.6691 5.52153C55.6135 5.52153 57.4782 6.30502 58.853 7.69963C60.2279 9.09425 61.0003 10.9858 61.0003 12.958C61.0003 14.9303 60.2279 16.8218 58.853 18.2165C57.4782 19.6111 55.6135 20.3946 53.6691 20.3946ZM53.6691 17.3174C54.2335 17.3177 54.7924 17.2053 55.3139 16.9865C55.8354 16.7678 56.3094 16.4469 56.7087 16.0424C57.108 15.6378 57.4248 15.1574 57.6411 14.6287C57.8574 14.0999 57.9689 13.5331 57.9692 12.9606C57.9696 12.3881 57.8587 11.8212 57.6431 11.2922C57.4274 10.7631 57.1111 10.2824 56.7123 9.87734C56.3134 9.4723 55.8399 9.15091 55.3186 8.93153C54.7973 8.71214 54.2385 8.59905 53.6742 8.59871H53.6691C52.5293 8.59871 51.4362 9.05799 50.6303 9.87553C49.8243 10.6931 49.3715 11.8019 49.3715 12.958C49.3715 14.1142 49.8243 15.223 50.6303 16.0406C51.4362 16.8581 52.5293 17.3174 53.6691 17.3174ZM38.3369 20.3946C36.3925 20.3946 34.5278 19.6111 33.153 18.2165C31.7781 16.8218 31.0057 14.9303 31.0057 12.958C31.0057 10.9858 31.7781 9.09425 33.153 7.69963C34.5278 6.30502 36.3925 5.52153 38.3369 5.52153C40.2812 5.52153 42.1459 6.30502 43.5208 7.69963C44.8956 9.09425 45.668 10.9858 45.668 12.958C45.668 14.9303 44.8956 16.8218 43.5208 18.2165C42.1459 19.6111 40.2812 20.3946 38.3369 20.3946ZM38.3369 17.3174C38.9012 17.3177 39.4602 17.2053 39.9817 16.9865C40.5032 16.7678 40.9772 16.4469 41.3765 16.0424C41.7758 15.6378 42.0926 15.1574 42.3089 14.6287C42.5252 14.0999 42.6367 13.5331 42.637 12.9606C42.6373 12.3881 42.5265 11.8212 42.3108 11.2922C42.0951 10.7631 41.7789 10.2824 41.38 9.87734C40.9812 9.4723 40.5076 9.15091 39.9864 8.93153C39.4651 8.71214 38.9063 8.59905 38.3419 8.59871H38.3369C37.1971 8.59871 36.104 9.05799 35.298 9.87553C34.4921 10.6931 34.0393 11.8019 34.0393 12.958C34.0393 14.1142 34.4921 15.223 35.298 16.0406C36.104 16.8581 37.1971 17.3174 38.3369 17.3174ZM30.3232 12.8606C30.3232 17.0148 27.0418 20.3946 22.9971 20.3946C18.9523 20.3946 15.6659 17.0251 15.6659 12.8657C15.6659 8.70641 18.6515 5.53178 22.9996 5.53178C24.6074 5.53178 26.0938 5.8754 27.2972 6.77291V2.46486C27.2972 2.0568 27.457 1.66545 27.7414 1.37691C28.0259 1.08837 28.4117 0.92627 28.814 0.92627C29.2162 0.92627 29.602 1.08837 29.8865 1.37691C30.1709 1.66545 30.3307 2.0568 30.3307 2.46486V12.8606H30.3232ZM22.9971 17.3225C24.1369 17.3232 25.2302 16.8646 26.0366 16.0475C26.8431 15.2305 27.2965 14.1219 27.2972 12.9657C27.2978 11.8096 26.8457 10.7005 26.0402 9.88247C25.2347 9.06446 24.1419 8.60452 23.0021 8.60384H22.9971C21.8573 8.60384 20.7642 9.06312 19.9582 9.88066C19.1523 10.6982 18.6995 11.807 18.6995 12.9632C18.6995 14.1193 19.1523 15.2282 19.9582 16.0457C20.7642 16.8632 21.8573 17.3225 22.9971 17.3225ZM7.65977 20.3946C5.71543 20.3946 3.85072 19.6111 2.47586 18.2165C1.101 16.8218 0.328613 14.9303 0.328613 12.958C0.328613 10.9858 1.101 9.09425 2.47586 7.69963C3.85072 6.30502 5.71543 5.52153 7.65977 5.52153C9.60412 5.52153 11.4688 6.30502 12.8437 7.69963C14.2185 9.09425 14.9909 10.9858 14.9909 12.958C14.9909 14.9303 14.2185 16.8218 12.8437 18.2165C11.4688 19.6111 9.60412 20.3946 7.65977 20.3946ZM7.65977 17.3174C8.22414 17.3177 8.78304 17.2053 9.30458 16.9865C9.82611 16.7678 10.3001 16.4469 10.6994 16.0424C11.0987 15.6378 11.4155 15.1574 11.6318 14.6287C11.8481 14.0999 11.9595 13.5331 11.9599 12.9606C11.9602 12.3881 11.8494 11.8212 11.6337 11.2922C11.418 10.7631 11.1018 10.2824 10.7029 9.87734C10.3041 9.4723 9.83053 9.15091 9.30925 8.93153C8.78797 8.71214 8.22919 8.59905 7.66483 8.59871H7.65977C6.51998 8.59871 5.42688 9.05799 4.62093 9.87553C3.81498 10.6931 3.3622 11.8019 3.3622 12.958C3.3622 14.1142 3.81498 15.223 4.62093 16.0406C5.42688 16.8581 6.51998 17.3174 7.65977 17.3174Z" fill="#A24689"/>
</svg>
