<svg width="45" height="46" viewBox="0 0 45 46" fill="none" xmlns="http://www.w3.org/2000/svg">
<path d="M22.6919 0.898926C16.8404 0.898926 11.2285 3.22344 7.09084 7.3611C2.95318 11.4988 0.628662 17.1106 0.628662 22.9622C0.628662 28.8137 2.95318 34.4256 7.09084 38.5632C11.2285 42.7009 16.8404 45.0254 22.6919 45.0254C28.5434 45.0254 34.1553 42.7009 38.293 38.5632C42.4306 34.4256 44.7552 28.8137 44.7552 22.9622C44.7552 17.1106 42.4306 11.4988 38.293 7.3611C34.1553 3.22344 28.5434 0.898926 22.6919 0.898926ZM23.8723 8.49971C25.6282 8.49971 27.0531 9.92463 27.0531 11.686V28.3548H29.9948C31.4007 28.3181 32.7366 27.7338 33.7179 26.7265C34.6993 25.7192 35.2485 24.3685 35.2485 22.9622C35.2485 21.5559 34.6993 20.2051 33.7179 19.1978C32.7366 18.1905 31.4007 17.6063 29.9948 17.5695H28.7703V14.3814H29.993C31.1189 14.3824 32.2335 14.6051 33.2733 15.0368C34.3132 15.4686 35.2577 16.1009 36.0532 16.8977C36.8486 17.6945 37.4793 18.6402 37.9093 19.6807C38.3392 20.7213 38.56 21.8363 38.5591 22.9622C38.5608 24.0881 38.3405 25.2033 37.9109 26.2441C37.4813 27.2848 36.8508 28.2307 36.0554 29.0276C35.2601 29.8245 34.3154 30.4569 33.2755 30.8885C32.2356 31.3201 31.1208 31.5425 29.9948 31.5429H23.8741L23.8723 8.49971ZM15.3081 14.3814H21.4288V37.4246C19.6711 37.4246 18.248 35.9979 18.248 34.2383V17.5677H15.3062C13.893 17.5938 12.5465 18.1735 11.5563 19.1822C10.5661 20.1908 10.0114 21.5478 10.0114 22.9613C10.0114 24.3747 10.5661 25.7317 11.5563 26.7403C12.5465 27.749 13.893 28.3287 15.3062 28.3548H16.5307V31.5411H15.3081C14.1823 31.5406 13.0677 31.3183 12.0279 30.8868C10.9881 30.4553 10.0435 29.8231 9.24813 29.0264C8.45278 28.2297 7.82223 27.284 7.39253 26.2435C6.96283 25.203 6.74241 24.0879 6.74386 22.9622C6.74217 21.8362 6.96241 20.721 7.392 19.6803C7.82159 18.6395 8.4521 17.6937 9.24748 16.8967C10.0429 16.0998 10.9875 15.4675 12.0274 15.0359C13.0674 14.6043 14.1822 14.3819 15.3081 14.3814Z" fill="#19BB7D"/>
</svg>
