<svg width="46" height="46" viewBox="0 0 46 46" fill="none" xmlns="http://www.w3.org/2000/svg">
<g clip-path="url(#clip0_214_3892)">
<g clip-path="url(#clip1_214_3892)">
<mask id="mask0_214_3892" style="mask-type:luminance" maskUnits="userSpaceOnUse" x="0" y="3" width="46" height="41">
<path d="M45.9165 3.26318H0.959229V43.0825H45.9165V3.26318Z" fill="white"/>
</mask>
<g mask="url(#mask0_214_3892)">
<path fill-rule="evenodd" clip-rule="evenodd" d="M30.6214 42.3817L30.5327 8.26226C30.3028 8.03243 29.8546 8.10184 29.6794 8.15303L28.5121 8.51482C28.368 8.0407 28.1811 7.58068 27.9535 7.14048C27.1252 5.5591 25.9147 4.72289 24.4494 4.72061H24.4449C24.347 4.72061 24.2503 4.72971 24.1524 4.73768L24.1412 4.73882C24.0987 4.68662 24.0548 4.63578 24.0091 4.58637C23.372 3.90374 22.5529 3.5704 21.5722 3.59885C19.6814 3.65346 17.7985 5.02097 16.2705 7.44994C15.1954 9.15989 14.3797 11.3067 14.1465 12.9689L10.4228 14.1237C9.32719 14.4684 9.29307 14.5025 9.14858 15.5367C9.04049 16.3194 6.17236 38.5261 6.17236 38.5261L30.2096 42.6877L30.6214 42.3817ZM22.7463 5.15862C22.4265 4.94815 22.0522 4.85031 21.6087 4.85941C18.6892 4.9436 16.1431 9.50917 15.4935 12.5514L18.29 11.6844L18.7895 11.5297C19.1558 9.5979 20.075 7.59329 21.2775 6.30315C21.698 5.84085 22.1956 5.45378 22.7463 5.15862ZM20.1717 11.1008L24.1855 9.85616C24.198 8.80948 24.0842 7.26222 23.5609 6.17003C23.0034 6.39984 22.5347 6.80259 22.198 7.16324C21.2957 8.13369 20.5586 9.61383 20.1717 11.1008ZM25.4426 9.46707L27.3084 8.88799C27.0104 7.91867 26.3027 6.29404 24.8681 6.021C25.3141 7.17348 25.4289 8.50799 25.4426 9.46707Z" fill="#95BF47"/>
<path d="M36.0077 10.7969C35.8643 10.7856 33.0861 10.7423 33.0861 10.7423C33.0861 10.7423 30.7617 8.48286 30.532 8.25191C30.4429 8.16979 30.3302 8.11801 30.21 8.104V42.6786L40.6256 40.0858C40.6256 40.0858 36.3752 11.3123 36.3478 11.1155C36.3347 11.0319 36.294 10.9551 36.2321 10.8974C36.1702 10.8396 36.0919 10.8043 36.0077 10.7969Z" fill="#5E8E3E"/>
<path d="M24.4362 16.1674L23.2257 20.7C23.2257 20.7 21.8763 20.0845 20.2756 20.1858C17.9297 20.3336 17.9046 21.816 17.9285 22.188C18.0559 24.2131 23.3815 24.6568 23.6807 29.4045C23.9163 33.1395 21.7023 35.6959 18.5121 35.8961C14.6838 36.1385 12.5757 33.8767 12.5757 33.8767L13.3869 30.4204C13.3869 30.4204 15.5087 32.0234 17.2061 31.9154C18.3165 31.8459 18.7124 30.9426 18.6726 30.3032C18.5054 27.6604 14.1685 27.8152 13.8943 23.4714C13.6645 19.8137 16.0615 16.1105 21.353 15.7761C23.3917 15.6464 24.4362 16.1674 24.4362 16.1674Z" fill="white"/>
</g>
</g>
</g>
<defs>
<clipPath id="clip0_214_3892">
<rect width="45.1285" height="45.1285" fill="white" transform="translate(0.874023 0.339355)"/>
</clipPath>
<clipPath id="clip1_214_3892">
<rect width="45.1285" height="45.1285" fill="white" transform="translate(0.874023 0.339355)"/>
</clipPath>
</defs>
</svg>
