<svg width="61" height="26" viewBox="0 0 61 26" fill="none" xmlns="http://www.w3.org/2000/svg">
<g clip-path="url(#clip0_214_3908)">
<path d="M60.303 13.0593C60.303 8.84054 58.2595 5.51168 54.354 5.51168C50.4317 5.51168 48.0587 8.84065 48.0587 13.0264C48.0587 17.9866 50.8604 20.4915 54.8812 20.4915C56.8423 20.4915 58.3255 20.0465 59.446 19.4204V16.1244C58.3256 16.6848 57.0401 17.0309 55.4086 17.0309C53.8101 17.0309 52.3929 16.4705 52.2116 14.526H60.2701C60.2701 14.3116 60.303 13.4548 60.303 13.0593ZM52.1622 11.4938C52.1622 9.63159 53.2993 8.85699 54.3375 8.85699C55.3427 8.85699 56.4139 9.63159 56.4139 11.4938H52.1622ZM41.6978 5.51168C40.0827 5.51168 39.0445 6.2697 38.4678 6.79715L38.2535 5.7754H34.6281V24.9903L38.7479 24.117L38.7645 19.4533C39.3577 19.8818 40.231 20.4915 41.6813 20.4915C44.6311 20.4915 47.3172 18.1184 47.3172 12.8945C47.3008 8.11541 44.5816 5.51168 41.6977 5.51168M40.7089 16.866C39.7366 16.866 39.1597 16.52 38.7643 16.0915L38.7478 9.97758C39.1763 9.49973 39.7695 9.17019 40.7089 9.17019C42.2085 9.17019 43.2467 10.851 43.2467 13.0098C43.2467 15.2181 42.2249 16.866 40.7089 16.866ZM28.9591 4.5394L33.0955 3.64951V0.304199L28.9591 1.17764V4.5394ZM28.9591 5.79185H33.0955V20.2113H28.9591V5.79185ZM24.5262 7.01128L24.2625 5.79185H20.7029V20.2113H24.8229V10.4391C25.795 9.17019 27.443 9.40089 27.9539 9.58211V5.79185C27.4266 5.59406 25.4985 5.2315 24.5262 7.01128ZM16.2864 2.21584L12.2654 3.07271L12.249 16.2727C12.249 18.7118 14.0782 20.5079 16.5172 20.5079C17.8685 20.5079 18.8572 20.2608 19.401 19.9642V16.6188C18.8738 16.8331 16.2699 17.5911 16.2699 15.1521V9.30193H19.401V5.79185H16.2699L16.2864 2.21584ZM5.14632 9.97758C5.14632 9.33496 5.67365 9.08769 6.5472 9.08769C7.79954 9.08769 9.38153 9.46682 10.634 10.1425V6.2697C9.26623 5.72592 7.91495 5.51168 6.5472 5.51168C3.20177 5.51168 0.977051 7.25855 0.977051 10.1755C0.977051 14.7237 7.23919 13.9987 7.23919 15.9598C7.23919 16.7177 6.58011 16.965 5.6572 16.965C4.28946 16.965 2.54258 16.4046 1.15827 15.6466V19.5687C2.6909 20.2279 4.23998 20.5079 5.6572 20.5079C9.0849 20.5079 11.4415 18.8107 11.4415 15.8608C11.425 10.95 5.14632 11.8233 5.14632 9.97758Z" fill="#635BFF"/>
</g>
<defs>
<clipPath id="clip0_214_3908">
<rect width="59.326" height="24.7964" fill="white" transform="translate(0.977051 0.304199)"/>
</clipPath>
</defs>
</svg>
