<svg width="46" height="46" viewBox="0 0 46 46" fill="none" xmlns="http://www.w3.org/2000/svg">
<g clip-path="url(#clip0_214_3917)">
<g clip-path="url(#clip1_214_3917)">
<g clip-path="url(#clip2_214_3917)">
<mask id="mask0_214_3917" style="mask-type:luminance" maskUnits="userSpaceOnUse" x="1" y="1" width="45" height="45">
<path d="M45.1636 1.69385H1.32446V45.533H45.1636V1.69385Z" fill="white"/>
</mask>
<g mask="url(#mask0_214_3917)">
<path d="M23.2442 1.69385C11.1155 1.69385 1.32471 11.4846 1.32471 23.6134C1.32471 35.7423 11.1155 45.533 23.2442 45.533C35.3731 45.533 45.1638 35.7423 45.1638 23.6134C45.1638 11.4846 35.3731 1.69385 23.2442 1.69385ZM23.2442 39.6878C14.3303 39.6878 7.16993 32.5274 7.16993 23.6134C7.16993 14.6995 14.3303 7.53907 23.2442 7.53907C32.1583 7.53907 39.3186 14.6995 39.3186 23.6134C39.3186 32.5274 32.1583 39.6878 23.2442 39.6878ZM33.1811 18.2066C33.1811 20.6909 31.1353 22.7366 28.6511 22.7366C26.1669 22.7366 24.121 20.6909 24.121 18.2066C24.121 15.7223 26.1669 13.6765 28.6511 13.6765C31.1353 13.6765 33.1811 15.7223 33.1811 18.2066ZM33.1811 29.0203C33.1811 31.5044 31.1353 33.5503 28.6511 33.5503C26.1669 33.5503 24.121 31.5044 24.121 29.0203C24.121 26.536 26.1669 24.4902 28.6511 24.4902C31.1353 24.4902 33.1811 26.536 33.1811 29.0203ZM22.3674 29.0203C22.3674 31.5044 20.3217 33.5503 17.8374 33.5503C15.3532 33.5503 13.3074 31.5044 13.3074 29.0203C13.3074 26.536 15.3532 24.4902 17.8374 24.4902C20.3217 24.4902 22.3674 26.536 22.3674 29.0203ZM22.3674 18.2066C22.3674 20.6909 20.3217 22.7366 17.8374 22.7366C15.3532 22.7366 13.3074 20.6909 13.3074 18.2066C13.3074 15.7223 15.3532 13.6765 17.8374 13.6765C20.3217 13.6765 22.3674 15.7223 22.3674 18.2066Z" fill="#F22F46"/>
</g>
</g>
</g>
</g>
<defs>
<clipPath id="clip0_214_3917">
<rect width="45.1285" height="45.1285" fill="white" transform="translate(0.67981 0.787598)"/>
</clipPath>
<clipPath id="clip1_214_3917">
<rect width="45.1285" height="45.1285" fill="white" transform="translate(0.67981 0.787598)"/>
</clipPath>
<clipPath id="clip2_214_3917">
<rect width="45.1285" height="45.1285" fill="white" transform="translate(0.67981 0.787598)"/>
</clipPath>
</defs>
</svg>
