<svg width="29" height="30" viewBox="0 0 29 30" fill="none" xmlns="http://www.w3.org/2000/svg">
<path fill-rule="evenodd" clip-rule="evenodd" d="M27.2 5.8002C27.2 3.8112 25.589 2.2002 23.6 2.2002H5.6C3.611 2.2002 2 3.8112 2 5.8002V23.8002C2 25.7892 3.611 27.4002 5.6 27.4002H23.6C25.589 27.4002 27.2 25.7892 27.2 23.8002V5.8002Z" fill="white"/>
<path d="M6.98141 22.1256H8.78141L13.5874 16.6626L17.7679 22.1166H22.6549L16.2424 13.6386L21.6694 7.47363H19.8694L15.4099 12.5406L11.5849 7.47813H6.54041L12.7459 15.5736L6.97691 22.1301L6.98141 22.1256ZM9.28091 8.82363H10.9189L19.9459 20.7666H18.4384L9.28541 8.82363H9.28091Z" fill="#131313"/>
</svg>
