<svg width="24" height="16" viewBox="0 0 24 16" xmlns="http://www.w3.org/2000/svg">
  <!-- Red stripes -->
  <rect width="24" height="1.23" fill="#B22234"/>
  <rect width="24" height="1.23" y="2.46" fill="#B22234"/>
  <rect width="24" height="1.23" y="4.92" fill="#B22234"/>
  <rect width="24" height="1.23" y="7.38" fill="#B22234"/>
  <rect width="24" height="1.23" y="9.85" fill="#B22234"/>
  <rect width="24" height="1.23" y="12.31" fill="#B22234"/>
  <rect width="24" height="1.23" y="14.77" fill="#B22234"/>
  
  <!-- White stripes -->
  <rect width="24" height="1.23" y="1.23" fill="#FFFFFF"/>
  <rect width="24" height="1.23" y="3.69" fill="#FFFFFF"/>
  <rect width="24" height="1.23" y="6.15" fill="#FFFFFF"/>
  <rect width="24" height="1.23" y="8.62" fill="#FFFFFF"/>
  <rect width="24" height="1.23" y="11.08" fill="#FFFFFF"/>
  <rect width="24" height="1.23" y="13.54" fill="#FFFFFF"/>
  
  <!-- Blue canton -->
  <rect width="9.6" height="8.86" fill="#3C3B6E"/>
  
  <!-- Stars (simplified) -->
  <g fill="#FFFFFF">
    <circle cx="1.2" cy="1.1" r="0.15"/>
    <circle cx="2.4" cy="1.1" r="0.15"/>
    <circle cx="3.6" cy="1.1" r="0.15"/>
    <circle cx="4.8" cy="1.1" r="0.15"/>
    <circle cx="6.0" cy="1.1" r="0.15"/>
    <circle cx="7.2" cy="1.1" r="0.15"/>
    <circle cx="8.4" cy="1.1" r="0.15"/>
    <circle cx="1.8" cy="1.8" r="0.15"/>
    <circle cx="3.0" cy="1.8" r="0.15"/>
    <circle cx="4.2" cy="1.8" r="0.15"/>
    <circle cx="5.4" cy="1.8" r="0.15"/>
    <circle cx="6.6" cy="1.8" r="0.15"/>
    <circle cx="7.8" cy="1.8" r="0.15"/>
  </g>
</svg>