<svg xmlns="http://www.w3.org/2000/svg" viewBox="0 0 48 48" width="48px" height="48px">
  <path fill="#1976d2" d="M24,4C13.507,4,5,12.507,5,23v18h6v-8.829c0-0.316,0.146-0.614,0.395-0.807C11.644,31.17,11.967,31.08,12.296,31.103C12.624,31.127,12.931,31.269,13.149,31.501L18.583,37.5C20.014,39.088,22.079,40,24.283,40h11.434c2.204,0,4.269-0.912,5.7-2.5l5.434-6c0.218-0.232,0.525-0.374,0.853-0.398c0.329-0.023,0.652,0.067,0.901,0.261C48.854,31.556,49,31.854,49,32.171V41h6V23C55,12.507,46.493,4,36,4H24z"/>
  <circle cx="24" cy="24" r="8" fill="#fff"/>
  <path fill="#1976d2" d="M24,18c-3.309,0-6,2.691-6,6s2.691,6,6,6s6-2.691,6-6S27.309,18,24,18z M24,28c-2.206,0-4-1.794-4-4s1.794-4,4-4s4,1.794,4,4S26.206,28,24,28z"/>
</svg>
